<svg width="124" height="124" viewBox="0 0 124 124" fill="none" xmlns="http://www.w3.org/2000/svg">
<path d="M123.795 61.875C123.795 53.7987 122.204 45.8015 119.114 38.34C116.023 30.8784 111.493 24.0987 105.782 18.3879C100.071 12.6771 93.2915 8.14707 85.83 5.05641C78.3684 1.96574 70.3712 0.375 62.2949 0.375C54.2186 0.375 46.2214 1.96574 38.7599 5.05641C31.2984 8.14707 24.5187 12.6771 18.8079 18.3879C13.0971 24.0987 8.56699 30.8784 5.47633 38.34C2.38567 45.8015 0.794922 53.7987 0.794922 61.875C0.794922 78.1858 7.27437 93.8286 18.8079 105.362C30.3413 116.896 45.9841 123.375 62.2949 123.375C78.6057 123.375 94.2485 116.896 105.782 105.362C117.315 93.8286 123.795 78.1858 123.795 61.875ZM11.0449 61.875C11.0449 48.2827 16.4445 35.247 26.0557 25.6358C35.6669 16.0245 48.7026 10.625 62.2949 10.625C75.8873 10.625 88.9229 16.0245 98.5341 25.6358C108.145 35.247 113.545 48.2827 113.545 61.875C113.545 75.4673 108.145 88.503 98.5341 98.1142C88.9229 107.725 75.8873 113.125 62.2949 113.125C48.7026 113.125 35.6669 107.725 26.0557 98.1142C16.4445 88.503 11.0449 75.4673 11.0449 61.875ZM52.0449 49.0625C52.0449 50.072 51.8461 51.0717 51.4597 52.0044C51.0734 52.9371 50.5072 53.7845 49.7933 54.4984C49.0795 55.2122 48.232 55.7785 47.2993 56.1648C46.3666 56.5512 45.367 56.75 44.3574 56.75C43.3479 56.75 42.3482 56.5512 41.4155 56.1648C40.4829 55.7785 39.6354 55.2122 38.9215 54.4984C38.2077 53.7845 37.6414 52.9371 37.2551 52.0044C36.8688 51.0717 36.6699 50.072 36.6699 49.0625C36.6699 47.0236 37.4799 45.0683 38.9215 43.6266C40.3632 42.1849 42.3186 41.375 44.3574 41.375C46.3963 41.375 48.3516 42.1849 49.7933 43.6266C51.235 45.0683 52.0449 47.0236 52.0449 49.0625ZM87.9199 49.0625C87.9199 51.1014 87.11 53.0567 85.6683 54.4984C84.2266 55.9401 82.2713 56.75 80.2324 56.75C78.1936 56.75 76.2382 55.9401 74.7965 54.4984C73.3549 53.0567 72.5449 51.1014 72.5449 49.0625C72.5449 47.0236 73.3549 45.0683 74.7965 43.6266C76.2382 42.1849 78.1936 41.375 80.2324 41.375C82.2713 41.375 84.2266 42.1849 85.6683 43.6266C87.11 45.0683 87.9199 47.0236 87.9199 49.0625ZM43.1479 90.8005C52.6292 79.5665 71.9504 79.5665 81.4419 90.8005C81.8655 91.3454 82.3947 91.7991 82.9978 92.1344C83.601 92.4697 84.2656 92.6798 84.952 92.752C85.6383 92.8242 86.3321 92.7571 86.9919 92.5546C87.6516 92.3522 88.2636 92.0185 88.7913 91.5737C89.319 91.129 89.7514 90.5822 90.0626 89.9662C90.3738 89.3503 90.5574 88.6778 90.6023 87.9892C90.6473 87.3005 90.5527 86.6099 90.3243 85.9587C90.0958 85.3075 89.7382 84.7091 89.2729 84.1995C75.6917 68.107 48.8879 68.107 35.3169 84.1995C34.8516 84.7091 34.494 85.3075 34.2656 85.9587C34.0371 86.6099 33.9425 87.3005 33.9875 87.9892C34.0325 88.6778 34.2161 89.3503 34.5273 89.9662C34.8385 90.5822 35.2709 91.129 35.7985 91.5737C36.3262 92.0185 36.9382 92.3522 37.598 92.5546C38.2577 92.7571 38.9516 92.8242 39.6379 92.752C40.3242 92.6798 40.9889 92.4697 41.592 92.1344C42.1952 91.7991 42.7244 91.3454 43.1479 90.8005Z" fill="#F21E1E" fill-opacity="0.93"/>
</svg>
