<svg width="714" height="360" viewBox="0 0 714 360" fill="none" xmlns="http://www.w3.org/2000/svg">
<rect x="0.5" y="0.152344" width="713.25" height="359.25" rx="10.034" fill="white"/>
<path d="M55.5046 31.7461C55.4549 31.2809 55.2454 30.9187 54.8761 30.6594C54.5103 30.4002 54.0344 30.2706 53.4485 30.2706C53.0366 30.2706 52.6832 30.3327 52.3885 30.457C52.0938 30.5813 51.8683 30.75 51.712 30.9631C51.5558 31.1761 51.4759 31.4194 51.4723 31.6928C51.4723 31.9201 51.5238 32.1172 51.6268 32.2841C51.7333 32.451 51.8771 32.593 52.0582 32.7102C52.2393 32.8239 52.44 32.9197 52.6602 32.9979C52.8803 33.076 53.1023 33.1417 53.326 33.195L54.3487 33.4506C54.7607 33.5465 55.1566 33.6761 55.5366 33.8395C55.9201 34.0028 56.2628 34.2088 56.5646 34.4574C56.87 34.706 57.1115 35.006 57.2891 35.3576C57.4666 35.7092 57.5554 36.1211 57.5554 36.5934C57.5554 37.2326 57.392 37.7955 57.0653 38.282C56.7386 38.7649 56.2663 39.1431 55.6484 39.4165C55.0341 39.6864 54.2901 39.8214 53.4165 39.8214C52.5678 39.8214 51.831 39.69 51.206 39.4272C50.5845 39.1644 50.098 38.7809 49.7464 38.2766C49.3984 37.7724 49.2102 37.158 49.1818 36.4336H51.1261C51.1545 36.8136 51.2717 37.1296 51.4776 37.3817C51.6836 37.6339 51.9517 37.8221 52.282 37.9464C52.6158 38.0707 52.9886 38.1328 53.4006 38.1328C53.8303 38.1328 54.2067 38.0689 54.5298 37.9411C54.8565 37.8097 55.1122 37.6286 55.2969 37.3977C55.4815 37.1634 55.5756 36.8899 55.5792 36.5774C55.5756 36.2933 55.4922 36.0589 55.3288 35.8743C55.1655 35.6861 54.9364 35.5298 54.6417 35.4055C54.3505 35.2777 54.0096 35.1641 53.619 35.0646L52.3778 34.745C51.4794 34.5142 50.7692 34.1644 50.2472 33.6957C49.7287 33.2234 49.4695 32.5966 49.4695 31.8153C49.4695 31.1726 49.6435 30.6097 49.9915 30.1268C50.343 29.6438 50.8207 29.2692 51.4244 29.0028C52.0281 28.733 52.7116 28.598 53.4751 28.598C54.2493 28.598 54.9276 28.733 55.5099 29.0028C56.0959 29.2692 56.5558 29.6403 56.8896 30.1161C57.2234 30.5884 57.3956 31.1317 57.4062 31.7461H55.5046ZM63.3176 31.4744V32.9659H58.6141V31.4744H63.3176ZM59.7753 29.5142H61.7036V37.1953C61.7036 37.4545 61.7426 37.6534 61.8208 37.7919C61.9024 37.9268 62.009 38.0192 62.1404 38.0689C62.2718 38.1186 62.4173 38.1435 62.5771 38.1435C62.6979 38.1435 62.808 38.1346 62.9074 38.1168C63.0104 38.0991 63.0885 38.0831 63.1418 38.0689L63.4667 39.5763C63.3637 39.6119 63.2164 39.6509 63.0246 39.6935C62.8364 39.7362 62.6056 39.761 62.3321 39.7681C61.8492 39.7823 61.4142 39.7095 61.0271 39.5497C60.64 39.3864 60.3328 39.1342 60.1056 38.7933C59.8818 38.4524 59.7718 38.0263 59.7753 37.5149V29.5142ZM67.2846 39.8214C66.7662 39.8214 66.2992 39.729 65.8837 39.5444C65.4718 39.3562 65.1451 39.0792 64.9036 38.7134C64.6657 38.3477 64.5467 37.8967 64.5467 37.3604C64.5467 36.8988 64.6319 36.517 64.8024 36.2152C64.9728 35.9134 65.2054 35.6719 65.5002 35.4908C65.7949 35.3097 66.127 35.1729 66.4963 35.0806C66.8691 34.9847 67.2544 34.9155 67.6522 34.8729C68.1316 34.8232 68.5204 34.7788 68.8187 34.7397C69.117 34.6971 69.3336 34.6332 69.4686 34.5479C69.6071 34.4592 69.6763 34.3224 69.6763 34.1378V34.1058C69.6763 33.7045 69.5574 33.3938 69.3194 33.1737C69.0815 32.9535 68.7388 32.8434 68.2914 32.8434C67.8191 32.8434 67.4444 32.9464 67.1674 33.1523C66.894 33.3583 66.7093 33.6016 66.6135 33.8821L64.813 33.6264C64.9551 33.1293 65.1895 32.7138 65.5162 32.38C65.8429 32.0426 66.2424 31.7905 66.7147 31.6236C67.187 31.4531 67.709 31.3679 68.2807 31.3679C68.6749 31.3679 69.0673 31.4141 69.4579 31.5064C69.8485 31.5987 70.2054 31.7514 70.5286 31.9645C70.8517 32.174 71.111 32.4599 71.3063 32.8221C71.5051 33.1843 71.6046 33.6371 71.6046 34.1804V39.6562H69.7509V38.5323H69.687C69.5698 38.7596 69.4047 38.9727 69.1916 39.1715C68.9821 39.3668 68.7175 39.5249 68.3979 39.6456C68.0819 39.7628 67.7108 39.8214 67.2846 39.8214ZM67.7853 38.4045C68.1724 38.4045 68.508 38.3281 68.7921 38.1754C69.0762 38.0192 69.2946 37.8132 69.4473 37.5575C69.6035 37.3018 69.6816 37.0231 69.6816 36.7212V35.7571C69.6213 35.8068 69.5183 35.853 69.3727 35.8956C69.2306 35.9382 69.0708 35.9755 68.8933 36.0075C68.7157 36.0394 68.54 36.0678 68.3659 36.0927C68.1919 36.1175 68.041 36.1388 67.9132 36.1566C67.6255 36.1957 67.3681 36.2596 67.1408 36.3484C66.9135 36.4371 66.7342 36.5614 66.6028 36.7212C66.4714 36.8775 66.4057 37.0799 66.4057 37.3285C66.4057 37.6836 66.5353 37.9517 66.7946 38.1328C67.0538 38.3139 67.3841 38.4045 67.7853 38.4045ZM77.6291 31.4744V32.9659H72.9256V31.4744H77.6291ZM74.0868 29.5142H76.0151V37.1953C76.0151 37.4545 76.0542 37.6534 76.1323 37.7919C76.214 37.9268 76.3205 38.0192 76.4519 38.0689C76.5833 38.1186 76.7289 38.1435 76.8887 38.1435C77.0094 38.1435 77.1195 38.1346 77.2189 38.1168C77.3219 38.0991 77.4 38.0831 77.4533 38.0689L77.7782 39.5763C77.6752 39.6119 77.5279 39.6509 77.3361 39.6935C77.1479 39.7362 76.9171 39.761 76.6436 39.7681C76.1607 39.7823 75.7257 39.7095 75.3386 39.5497C74.9515 39.3864 74.6444 39.1342 74.4171 38.7933C74.1934 38.4524 74.0833 38.0263 74.0868 37.5149V29.5142ZM84.4566 36.2152V31.4744H86.3849V39.6562H84.5152V38.2021H84.43C84.2453 38.6602 83.9417 39.0348 83.5191 39.326C83.1001 39.6172 82.5834 39.7628 81.969 39.7628C81.4328 39.7628 80.9587 39.6438 80.5468 39.4059C80.1384 39.1644 79.8188 38.8146 79.588 38.3565C79.3572 37.8949 79.2417 37.3374 79.2417 36.6839V31.4744H81.17V36.3857C81.17 36.9041 81.3121 37.3161 81.5961 37.6214C81.8802 37.9268 82.2531 38.0795 82.7148 38.0795C82.9988 38.0795 83.2741 38.0103 83.5404 37.8718C83.8067 37.7333 84.0251 37.5273 84.1956 37.2539C84.3696 36.9769 84.4566 36.6307 84.4566 36.2152ZM94.8343 33.6371L93.0765 33.8288C93.0268 33.6513 92.9398 33.4844 92.8155 33.3281C92.6948 33.1719 92.5314 33.0458 92.3255 32.9499C92.1195 32.854 91.8674 32.8061 91.5691 32.8061C91.1678 32.8061 90.8304 32.8931 90.557 33.0671C90.2871 33.2411 90.1539 33.4666 90.1575 33.7436C90.1539 33.9815 90.2409 34.1751 90.4185 34.3242C90.5996 34.4734 90.8979 34.5959 91.3134 34.6918L92.709 34.9901C93.4831 35.157 94.0584 35.4215 94.4348 35.7837C94.8148 36.146 95.0066 36.62 95.0101 37.206C95.0066 37.7209 94.8556 38.1754 94.5574 38.5696C94.2626 38.9602 93.8525 39.2656 93.3269 39.4858C92.8013 39.706 92.1976 39.8161 91.5158 39.8161C90.5144 39.8161 89.7083 39.6065 89.0975 39.1875C88.4867 38.7649 88.1227 38.1772 88.0055 37.4244L89.8858 37.2433C89.9711 37.6126 90.1522 37.8913 90.4292 38.0795C90.7061 38.2678 91.0666 38.3619 91.5105 38.3619C91.9686 38.3619 92.3361 38.2678 92.6131 38.0795C92.8936 37.8913 93.0339 37.6587 93.0339 37.3817C93.0339 37.1474 92.9434 36.9538 92.7623 36.8011C92.5847 36.6484 92.3077 36.5312 91.9313 36.4496L90.5357 36.1566C89.7509 35.9933 89.1703 35.718 88.7939 35.331C88.4174 34.9403 88.231 34.4467 88.2346 33.8501C88.231 33.3459 88.3677 32.9091 88.6447 32.5398C88.9252 32.1669 89.3141 31.8793 89.8113 31.6768C90.312 31.4709 90.889 31.3679 91.5424 31.3679C92.5012 31.3679 93.2559 31.5721 93.8063 31.9805C94.3603 32.3888 94.7029 32.9411 94.8343 33.6371ZM100.406 39.6562V28.7472H104.497C105.335 28.7472 106.038 28.8928 106.606 29.1839C107.178 29.4751 107.61 29.8835 107.901 30.4091C108.195 30.9311 108.343 31.5401 108.343 32.2362C108.343 32.9357 108.194 33.543 107.895 34.0579C107.601 34.5692 107.166 34.9652 106.59 35.2457C106.015 35.5227 105.308 35.6612 104.47 35.6612H101.557V34.0206H104.204C104.694 34.0206 105.095 33.9531 105.408 33.8182C105.72 33.6797 105.951 33.479 106.1 33.2163C106.253 32.9499 106.329 32.6232 106.329 32.2362C106.329 31.8491 106.253 31.5188 106.1 31.2454C105.948 30.9684 105.715 30.7589 105.403 30.6168C105.09 30.4712 104.687 30.3984 104.193 30.3984H102.382V39.6562H100.406ZM106.042 34.7131L108.742 39.6562H106.537L103.884 34.7131H106.042ZM113.582 39.8161C112.761 39.8161 112.053 39.6456 111.456 39.3047C110.863 38.9602 110.407 38.4737 110.087 37.8452C109.768 37.2131 109.608 36.4691 109.608 35.6133C109.608 34.7717 109.768 34.033 110.087 33.3974C110.411 32.7582 110.862 32.261 111.44 31.9059C112.019 31.5472 112.699 31.3679 113.48 31.3679C113.985 31.3679 114.461 31.4496 114.908 31.6129C115.359 31.7727 115.757 32.0213 116.101 32.3587C116.449 32.696 116.723 33.1257 116.922 33.6477C117.12 34.1662 117.22 34.7841 117.22 35.5014V36.0927H110.513V34.793H115.371C115.368 34.4237 115.288 34.0952 115.132 33.8075C114.975 33.5163 114.757 33.2873 114.477 33.1204C114.2 32.9535 113.876 32.87 113.507 32.87C113.113 32.87 112.767 32.9659 112.468 33.1577C112.17 33.3459 111.938 33.5945 111.771 33.9034C111.607 34.2088 111.524 34.5444 111.52 34.9102V36.0447C111.52 36.5206 111.607 36.929 111.781 37.2699C111.955 37.6072 112.199 37.8665 112.511 38.0476C112.824 38.2251 113.189 38.3139 113.608 38.3139C113.889 38.3139 114.143 38.2749 114.37 38.1967C114.597 38.1151 114.794 37.9961 114.961 37.8398C115.128 37.6836 115.254 37.4901 115.339 37.2592L117.14 37.4616C117.026 37.9375 116.81 38.353 116.49 38.7081C116.174 39.0597 115.769 39.3331 115.276 39.5284C114.782 39.7202 114.217 39.8161 113.582 39.8161ZM118.851 42.7244V31.4744H120.747V32.8274H120.859C120.959 32.6286 121.099 32.4173 121.28 32.1935C121.461 31.9663 121.706 31.7727 122.015 31.6129C122.324 31.4496 122.718 31.3679 123.198 31.3679C123.83 31.3679 124.4 31.5295 124.908 31.8526C125.419 32.1722 125.824 32.6463 126.122 33.2749C126.424 33.8999 126.575 34.6669 126.575 35.576C126.575 36.4744 126.427 37.2379 126.133 37.8665C125.838 38.495 125.437 38.9744 124.929 39.3047C124.421 39.6349 123.846 39.8001 123.203 39.8001C122.734 39.8001 122.345 39.7219 122.036 39.5657C121.728 39.4094 121.479 39.2212 121.291 39.0011C121.106 38.7773 120.962 38.5661 120.859 38.3672H120.779V42.7244H118.851ZM120.742 35.5653C120.742 36.0945 120.817 36.5579 120.966 36.9556C121.119 37.3533 121.337 37.6641 121.621 37.8878C121.909 38.108 122.257 38.218 122.665 38.218C123.091 38.218 123.448 38.1044 123.736 37.8771C124.023 37.6463 124.24 37.332 124.386 36.9343C124.535 36.533 124.609 36.0767 124.609 35.5653C124.609 35.0575 124.536 34.6065 124.391 34.2124C124.245 33.8182 124.029 33.5092 123.741 33.2855C123.453 33.0618 123.095 32.9499 122.665 32.9499C122.253 32.9499 121.903 33.0582 121.616 33.2749C121.328 33.4915 121.11 33.7951 120.96 34.1857C120.815 34.5763 120.742 35.0362 120.742 35.5653ZM131.795 39.8161C130.996 39.8161 130.304 39.6403 129.718 39.2887C129.132 38.9371 128.677 38.4453 128.354 37.8132C128.034 37.1811 127.875 36.4425 127.875 35.5973C127.875 34.7521 128.034 34.0117 128.354 33.3761C128.677 32.7404 129.132 32.2468 129.718 31.8952C130.304 31.5437 130.996 31.3679 131.795 31.3679C132.594 31.3679 133.286 31.5437 133.872 31.8952C134.458 32.2468 134.911 32.7404 135.231 33.3761C135.554 34.0117 135.715 34.7521 135.715 35.5973C135.715 36.4425 135.554 37.1811 135.231 37.8132C134.911 38.4453 134.458 38.9371 133.872 39.2887C133.286 39.6403 132.594 39.8161 131.795 39.8161ZM131.806 38.2713C132.239 38.2713 132.601 38.1523 132.892 37.9144C133.184 37.6729 133.4 37.3498 133.542 36.945C133.688 36.5401 133.761 36.0891 133.761 35.592C133.761 35.0913 133.688 34.6385 133.542 34.2337C133.4 33.8253 133.184 33.5004 132.892 33.2589C132.601 33.0174 132.239 32.8967 131.806 32.8967C131.362 32.8967 130.992 33.0174 130.698 33.2589C130.407 33.5004 130.188 33.8253 130.043 34.2337C129.9 34.6385 129.829 35.0913 129.829 35.592C129.829 36.0891 129.9 36.5401 130.043 36.945C130.188 37.3498 130.407 37.6729 130.698 37.9144C130.992 38.1523 131.362 38.2713 131.806 38.2713ZM137.352 39.6562V31.4744H139.222V32.8381H139.307C139.456 32.3658 139.712 32.0018 140.074 31.7461C140.44 31.4869 140.857 31.3572 141.326 31.3572C141.432 31.3572 141.551 31.3626 141.683 31.3732C141.818 31.3803 141.93 31.3928 142.018 31.4105V33.1843C141.937 33.1559 141.807 33.131 141.629 33.1097C141.455 33.0849 141.287 33.0724 141.123 33.0724C140.772 33.0724 140.456 33.1488 140.175 33.3015C139.898 33.4506 139.68 33.6584 139.52 33.9247C139.36 34.1911 139.28 34.4982 139.28 34.8462V39.6562H137.352ZM147.824 31.4744V32.9659H143.121V31.4744H147.824ZM144.282 29.5142H146.21V37.1953C146.21 37.4545 146.249 37.6534 146.328 37.7919C146.409 37.9268 146.516 38.0192 146.647 38.0689C146.779 38.1186 146.924 38.1435 147.084 38.1435C147.205 38.1435 147.315 38.1346 147.414 38.1168C147.517 38.0991 147.595 38.0831 147.649 38.0689L147.974 39.5763C147.871 39.6119 147.723 39.6509 147.531 39.6935C147.343 39.7362 147.112 39.761 146.839 39.7681C146.356 39.7823 145.921 39.7095 145.534 39.5497C145.147 39.3864 144.84 39.1342 144.612 38.7933C144.389 38.4524 144.279 38.0263 144.282 37.5149V29.5142ZM153.89 28.2358L150.375 41.2969H148.686L152.202 28.2358H153.89ZM157.59 39.6562L154.511 28.7472H156.636L158.602 36.7638H158.703L160.802 28.7472H162.735L164.839 36.7692H164.935L166.901 28.7472H169.026L165.947 39.6562H163.998L161.814 32.0018H161.728L159.539 39.6562H157.59ZM173.098 39.8161C172.278 39.8161 171.57 39.6456 170.973 39.3047C170.38 38.9602 169.924 38.4737 169.604 37.8452C169.284 37.2131 169.125 36.4691 169.125 35.6133C169.125 34.7717 169.284 34.033 169.604 33.3974C169.927 32.7582 170.378 32.261 170.957 31.9059C171.536 31.5472 172.216 31.3679 172.997 31.3679C173.501 31.3679 173.977 31.4496 174.425 31.6129C174.876 31.7727 175.273 32.0213 175.618 32.3587C175.966 32.696 176.239 33.1257 176.438 33.6477C176.637 34.1662 176.736 34.7841 176.736 35.5014V36.0927H170.03V34.793H174.888C174.884 34.4237 174.805 34.0952 174.648 33.8075C174.492 33.5163 174.274 33.2873 173.993 33.1204C173.716 32.9535 173.393 32.87 173.024 32.87C172.63 32.87 172.283 32.9659 171.985 33.1577C171.687 33.3459 171.454 33.5945 171.287 33.9034C171.124 34.2088 171.04 34.5444 171.037 34.9102V36.0447C171.037 36.5206 171.124 36.929 171.298 37.2699C171.472 37.6072 171.715 37.8665 172.028 38.0476C172.34 38.2251 172.706 38.3139 173.125 38.3139C173.405 38.3139 173.659 38.2749 173.887 38.1967C174.114 38.1151 174.311 37.9961 174.478 37.8398C174.645 37.6836 174.771 37.4901 174.856 37.2592L176.657 37.4616C176.543 37.9375 176.326 38.353 176.007 38.7081C175.691 39.0597 175.286 39.3331 174.792 39.5284C174.299 39.7202 173.734 39.8161 173.098 39.8161ZM181.99 39.8161C181.17 39.8161 180.461 39.6456 179.865 39.3047C179.271 38.9602 178.815 38.4737 178.496 37.8452C178.176 37.2131 178.016 36.4691 178.016 35.6133C178.016 34.7717 178.176 34.033 178.496 33.3974C178.819 32.7582 179.27 32.261 179.849 31.9059C180.427 31.5472 181.107 31.3679 181.889 31.3679C182.393 31.3679 182.869 31.4496 183.316 31.6129C183.767 31.7727 184.165 32.0213 184.509 32.3587C184.857 32.696 185.131 33.1257 185.33 33.6477C185.529 34.1662 185.628 34.7841 185.628 35.5014V36.0927H178.922V34.793H183.78C183.776 34.4237 183.696 34.0952 183.54 33.8075C183.384 33.5163 183.165 33.2873 182.885 33.1204C182.608 32.9535 182.285 32.87 181.915 32.87C181.521 32.87 181.175 32.9659 180.877 33.1577C180.578 33.3459 180.346 33.5945 180.179 33.9034C180.015 34.2088 179.932 34.5444 179.928 34.9102V36.0447C179.928 36.5206 180.015 36.929 180.189 37.2699C180.363 37.6072 180.607 37.8665 180.919 38.0476C181.232 38.2251 181.597 38.3139 182.017 38.3139C182.297 38.3139 182.551 38.2749 182.778 38.1967C183.006 38.1151 183.203 37.9961 183.369 37.8398C183.536 37.6836 183.662 37.4901 183.748 37.2592L185.548 37.4616C185.434 37.9375 185.218 38.353 184.898 38.7081C184.582 39.0597 184.177 39.3331 183.684 39.5284C183.19 39.7202 182.626 39.8161 181.99 39.8161ZM189.017 37.0888L189.012 34.761H189.321L192.261 31.4744H194.514L190.897 35.5014H190.498L189.017 37.0888ZM187.259 39.6562V28.7472H189.188V39.6562H187.259ZM192.394 39.6562L189.731 35.9329L191.031 34.5746L194.701 39.6562H192.394ZM197.728 28.7472V39.6562H195.799V28.7472H197.728ZM200.909 42.7244C200.646 42.7244 200.403 42.7031 200.179 42.6605C199.959 42.6214 199.783 42.5753 199.652 42.522L200.099 41.0199C200.38 41.1016 200.63 41.1406 200.85 41.1371C201.071 41.1335 201.264 41.0643 201.431 40.9293C201.601 40.7979 201.745 40.5778 201.862 40.2688L202.028 39.8267L199.061 31.4744H201.106L202.992 37.6534H203.077L204.968 31.4744H207.019L203.743 40.647C203.59 41.0803 203.388 41.4513 203.136 41.7603C202.883 42.0728 202.574 42.3107 202.209 42.4741C201.847 42.641 201.413 42.7244 200.909 42.7244Z" fill="#333333"/>
<line opacity="0.2" y1="-0.40775" x2="563.127" y2="-0.40775" transform="matrix(0.999996 0.00298932 -0.0167052 0.99986 102.13 268.789)" stroke="black" stroke-width="0.815501"/>
<line opacity="0.2" y1="-0.40775" x2="563.127" y2="-0.40775" transform="matrix(0.999996 0.00298932 -0.0167052 0.99986 102.13 219.859)" stroke="black" stroke-width="0.815501"/>
<line opacity="0.2" y1="-0.40775" x2="563.127" y2="-0.40775" transform="matrix(0.999996 0.00298932 -0.0167052 0.99986 102.13 170.926)" stroke="black" stroke-width="0.815501"/>
<line opacity="0.2" y1="-0.40775" x2="563.127" y2="-0.40775" transform="matrix(0.999996 0.00298932 -0.0167052 0.99986 102.13 121.996)" stroke="black" stroke-width="0.815501"/>
<line opacity="0.2" y1="-0.40775" x2="563.127" y2="-0.40775" transform="matrix(0.999996 0.00298932 -0.0167052 0.99986 102.13 73.0664)" stroke="black" stroke-width="0.815501"/>
<path d="M81.078 271.317C80.3799 271.317 79.7852 271.127 79.2941 270.747C78.8029 270.364 78.4276 269.81 78.1681 269.084C77.9087 268.355 77.7789 267.474 77.7789 266.443C77.7789 265.417 77.9087 264.541 78.1681 263.816C78.4307 263.087 78.8076 262.531 79.2987 262.147C79.793 261.761 80.3861 261.568 81.078 261.568C81.7699 261.568 82.3615 261.761 82.8526 262.147C83.3469 262.531 83.7237 263.087 83.9832 263.816C84.2458 264.541 84.3771 265.417 84.3771 266.443C84.3771 267.474 84.2473 268.355 83.9878 269.084C83.7284 269.81 83.3531 270.364 82.8619 270.747C82.3707 271.127 81.7761 271.317 81.078 271.317ZM81.078 270.298C81.7699 270.298 82.3074 269.964 82.6905 269.297C83.0735 268.63 83.265 267.678 83.265 266.443C83.265 265.621 83.177 264.921 83.0009 264.344C82.8279 263.766 82.5777 263.326 82.2503 263.023C81.9259 262.721 81.5352 262.569 81.078 262.569C80.3922 262.569 79.8563 262.907 79.4702 263.584C79.084 264.257 78.891 265.21 78.891 266.443C78.891 267.264 78.9775 267.963 79.1504 268.537C79.3234 269.112 79.5721 269.549 79.8964 269.848C80.2239 270.148 80.6177 270.298 81.078 270.298Z" fill="#B6B6B6"/>
<path d="M72.6978 224.634C72.1541 224.634 71.6645 224.526 71.2289 224.309C70.7934 224.093 70.4443 223.797 70.1818 223.42C69.9192 223.043 69.7756 222.613 69.7508 222.132H70.8629C70.9061 222.561 71.1007 222.916 71.4467 223.197C71.7958 223.475 72.2128 223.614 72.6978 223.614C73.087 223.614 73.433 223.523 73.7357 223.341C74.0415 223.159 74.2809 222.908 74.4539 222.59C74.6299 222.269 74.718 221.906 74.718 221.501C74.718 221.087 74.6269 220.718 74.4446 220.394C74.2654 220.067 74.0183 219.809 73.7032 219.62C73.3882 219.432 73.0283 219.336 72.6236 219.333C72.3333 219.33 72.0352 219.375 71.7294 219.467C71.4235 219.557 71.1718 219.673 70.9741 219.815L69.8991 219.685L70.4737 215.014H75.4037V216.034H71.4374L71.1038 218.832H71.1594C71.354 218.678 71.5981 218.55 71.8915 218.448C72.185 218.346 72.4908 218.295 72.809 218.295C73.3897 218.295 73.9071 218.434 74.3612 218.712C74.8184 218.987 75.1767 219.364 75.4362 219.843C75.6987 220.321 75.83 220.868 75.83 221.483C75.83 222.088 75.6941 222.629 75.4223 223.105C75.1535 223.577 74.7829 223.951 74.3102 224.226C73.8376 224.498 73.3001 224.634 72.6978 224.634ZM80.7659 224.634C80.0678 224.634 79.4731 224.444 78.982 224.064C78.4908 223.681 78.1155 223.126 77.856 222.4C77.5966 221.671 77.4668 220.791 77.4668 219.759C77.4668 218.734 77.5966 217.858 77.856 217.132C78.1186 216.403 78.4955 215.847 78.9866 215.464C79.4809 215.078 80.074 214.885 80.7659 214.885C81.4578 214.885 82.0494 215.078 82.5405 215.464C83.0348 215.847 83.4116 216.403 83.6711 217.132C83.9337 217.858 84.065 218.734 84.065 219.759C84.065 220.791 83.9352 221.671 83.6758 222.4C83.4163 223.126 83.041 223.681 82.5498 224.064C82.0586 224.444 81.464 224.634 80.7659 224.634ZM80.7659 223.614C81.4578 223.614 81.9953 223.281 82.3784 222.613C82.7614 221.946 82.9529 220.995 82.9529 219.759C82.9529 218.937 82.8649 218.238 82.6888 217.66C82.5158 217.083 82.2656 216.642 81.9382 216.34C81.6138 216.037 81.2231 215.886 80.7659 215.886C80.0801 215.886 79.5442 216.224 79.1581 216.9C78.7719 217.574 78.5789 218.527 78.5789 219.759C78.5789 220.581 78.6654 221.279 78.8383 221.854C79.0113 222.428 79.26 222.865 79.5843 223.165C79.9118 223.464 80.3056 223.614 80.7659 223.614Z" fill="#B6B6B6"/>
<path d="M67.0684 165.335V174.824H65.9193V166.539H65.8637L63.547 168.078V166.91L65.9193 165.335H67.0684ZM72.8928 174.954C72.1947 174.954 71.6 174.764 71.1089 174.384C70.6177 174.001 70.2424 173.447 69.9829 172.721C69.7235 171.992 69.5937 171.111 69.5937 170.079C69.5937 169.054 69.7235 168.178 69.9829 167.452C70.2455 166.723 70.6224 166.167 71.1135 165.784C71.6078 165.398 72.2009 165.205 72.8928 165.205C73.5847 165.205 74.1763 165.398 74.6674 165.784C75.1617 166.167 75.5385 166.723 75.798 167.452C76.0606 168.178 76.1919 169.054 76.1919 170.079C76.1919 171.111 76.0621 171.992 75.8026 172.721C75.5432 173.447 75.1679 174.001 74.6767 174.384C74.1855 174.764 73.5909 174.954 72.8928 174.954ZM72.8928 173.935C73.5847 173.935 74.1222 173.601 74.5053 172.934C74.8883 172.267 75.0798 171.315 75.0798 170.079C75.0798 169.258 74.9918 168.558 74.8157 167.98C74.6427 167.403 74.3925 166.963 74.0651 166.66C73.7407 166.357 73.35 166.206 72.8928 166.206C72.207 166.206 71.6711 166.544 71.285 167.221C70.8988 167.894 70.7058 168.847 70.7058 170.079C70.7058 170.901 70.7923 171.599 70.9652 172.174C71.1382 172.748 71.3869 173.185 71.7112 173.485C72.0387 173.785 72.4325 173.935 72.8928 173.935ZM81.0478 174.954C80.3497 174.954 79.755 174.764 79.2639 174.384C78.7727 174.001 78.3974 173.447 78.1379 172.721C77.8785 171.992 77.7487 171.111 77.7487 170.079C77.7487 169.054 77.8785 168.178 78.1379 167.452C78.4005 166.723 78.7774 166.167 79.2685 165.784C79.7628 165.398 80.3559 165.205 81.0478 165.205C81.7397 165.205 82.3313 165.398 82.8224 165.784C83.3167 166.167 83.6935 166.723 83.953 167.452C84.2156 168.178 84.3469 169.054 84.3469 170.079C84.3469 171.111 84.2171 171.992 83.9577 172.721C83.6982 173.447 83.3229 174.001 82.8317 174.384C82.3406 174.764 81.7459 174.954 81.0478 174.954ZM81.0478 173.935C81.7397 173.935 82.2772 173.601 82.6603 172.934C83.0433 172.267 83.2348 171.315 83.2348 170.079C83.2348 169.258 83.1468 168.558 82.9707 167.98C82.7977 167.403 82.5475 166.963 82.2201 166.66C81.8957 166.357 81.505 166.206 81.0478 166.206C80.362 166.206 79.8261 166.544 79.44 167.221C79.0538 167.894 78.8608 168.847 78.8608 170.079C78.8608 170.901 78.9473 171.599 79.1203 172.174C79.2932 172.748 79.5419 173.185 79.8663 173.485C80.1937 173.785 80.5875 173.935 81.0478 173.935Z" fill="#B6B6B6"/>
<path d="M67.0684 116.409V125.898H65.9193V117.614H65.8637L63.547 119.152V117.984L65.9193 116.409H67.0684ZM72.7631 126.028C72.2194 126.028 71.7298 125.92 71.2942 125.704C70.8587 125.488 70.5096 125.191 70.247 124.814C69.9845 124.437 69.8408 124.008 69.8161 123.526H70.9282C70.9714 123.955 71.166 124.311 71.512 124.592C71.8611 124.87 72.2781 125.009 72.7631 125.009C73.1523 125.009 73.4982 124.918 73.801 124.735C74.1068 124.553 74.3462 124.303 74.5192 123.985C74.6952 123.664 74.7833 123.301 74.7833 122.896C74.7833 122.482 74.6921 122.113 74.5099 121.788C74.3307 121.461 74.0836 121.203 73.7685 121.015C73.4534 120.826 73.0936 120.731 72.6889 120.727C72.3985 120.724 72.1005 120.769 71.7946 120.862C71.4888 120.951 71.2371 121.067 71.0394 121.209L69.9644 121.08L70.539 116.409H75.469V117.428H71.5027L71.1691 120.227H71.2247C71.4193 120.073 71.6634 119.944 71.9568 119.842C72.2503 119.74 72.5561 119.69 72.8743 119.69C73.455 119.69 73.9724 119.829 74.4265 120.107C74.8837 120.381 75.242 120.758 75.5015 121.237C75.764 121.716 75.8953 122.263 75.8953 122.877C75.8953 123.483 75.7594 124.023 75.4876 124.499C75.2188 124.972 74.8481 125.346 74.3755 125.62C73.9029 125.892 73.3654 126.028 72.7631 126.028ZM80.8312 126.028C80.1331 126.028 79.5384 125.838 79.0473 125.458C78.5561 125.075 78.1808 124.521 77.9213 123.795C77.6619 123.066 77.5321 122.185 77.5321 121.154C77.5321 120.128 77.6619 119.252 77.9213 118.526C78.1839 117.797 78.5608 117.241 79.0519 116.858C79.5462 116.472 80.1392 116.279 80.8312 116.279C81.5231 116.279 82.1147 116.472 82.6058 116.858C83.1001 117.241 83.4769 117.797 83.7364 118.526C83.999 119.252 84.1303 120.128 84.1303 121.154C84.1303 122.185 84.0005 123.066 83.741 123.795C83.4816 124.521 83.1062 125.075 82.6151 125.458C82.1239 125.838 81.5293 126.028 80.8312 126.028ZM80.8312 125.009C81.5231 125.009 82.0606 124.675 82.4437 124.008C82.8267 123.341 83.0182 122.389 83.0182 121.154C83.0182 120.332 82.9302 119.632 82.7541 119.055C82.5811 118.477 82.3309 118.037 82.0035 117.734C81.6791 117.431 81.2884 117.28 80.8312 117.28C80.1454 117.28 79.6095 117.618 79.2233 118.295C78.8372 118.968 78.6442 119.921 78.6442 121.154C78.6442 121.975 78.7307 122.674 78.9036 123.248C79.0766 123.823 79.3253 124.26 79.6496 124.559C79.9771 124.859 80.3709 125.009 80.8312 125.009Z" fill="#B6B6B6"/>
<path d="M61.4823 76.9648V76.1308L64.6146 72.702C64.9822 72.3004 65.2849 71.9514 65.5227 71.6548C65.7606 71.3552 65.9367 71.0741 66.051 70.8115C66.1683 70.5459 66.227 70.2679 66.227 69.9775C66.227 69.6439 66.1467 69.355 65.9861 69.111C65.8286 68.867 65.6123 68.6786 65.3374 68.5457C65.0625 68.4129 64.7536 68.3465 64.4107 68.3465C64.0462 68.3465 63.728 68.4222 63.4562 68.5735C63.1874 68.7218 62.9789 68.9303 62.8307 69.1991C62.6855 69.4678 62.6129 69.7829 62.6129 70.1443H61.5194C61.5194 69.5883 61.6476 69.1002 61.904 68.6801C62.1603 68.26 62.5094 67.9326 62.9511 67.6978C63.396 67.463 63.8948 67.3456 64.4478 67.3456C65.0038 67.3456 65.4965 67.463 65.9259 67.6978C66.3552 67.9326 66.6919 68.2492 66.936 68.6477C67.18 69.0461 67.302 69.4894 67.302 69.9775C67.302 70.3265 67.2387 70.6679 67.112 71.0015C66.9885 71.332 66.7723 71.7012 66.4634 72.1089C66.1575 72.5136 65.7328 73.0078 65.1891 73.5916L63.0577 75.8713V75.9455H67.4688V76.9648H61.4823ZM72.4777 77.0946C71.7796 77.0946 71.1849 76.9046 70.6938 76.5247C70.2026 76.1416 69.8273 75.5871 69.5678 74.8612C69.3083 74.1322 69.1786 73.2518 69.1786 72.2201C69.1786 71.1946 69.3083 70.3188 69.5678 69.5929C69.8304 68.8639 70.2072 68.3079 70.6984 67.9248C71.1926 67.5387 71.7857 67.3456 72.4777 67.3456C73.1696 67.3456 73.7612 67.5387 74.2523 67.9248C74.7466 68.3079 75.1234 68.8639 75.3829 69.5929C75.6455 70.3188 75.7767 71.1946 75.7767 72.2201C75.7767 73.2518 75.647 74.1322 75.3875 74.8612C75.128 75.5871 74.7527 76.1416 74.2616 76.5247C73.7704 76.9046 73.1758 77.0946 72.4777 77.0946ZM72.4777 76.0752C73.1696 76.0752 73.7071 75.7416 74.0901 75.0744C74.4732 74.4071 74.6647 73.4557 74.6647 72.2201C74.6647 71.3984 74.5767 70.6988 74.4006 70.1211C74.2276 69.5435 73.9774 69.1033 73.65 68.8006C73.3256 68.4978 72.9348 68.3465 72.4777 68.3465C71.7919 68.3465 71.256 68.6847 70.8698 69.3612C70.4837 70.0346 70.2906 70.9876 70.2906 72.2201C70.2906 73.0418 70.3771 73.7399 70.5501 74.3145C70.7231 74.889 70.9718 75.3261 71.2961 75.6258C71.6236 75.9254 72.0174 76.0752 72.4777 76.0752ZM80.6327 77.0946C79.9346 77.0946 79.3399 76.9046 78.8488 76.5247C78.3576 76.1416 77.9823 75.5871 77.7228 74.8612C77.4633 74.1322 77.3336 73.2518 77.3336 72.2201C77.3336 71.1946 77.4633 70.3188 77.7228 69.5929C77.9854 68.8639 78.3622 68.3079 78.8534 67.9248C79.3476 67.5387 79.9407 67.3456 80.6327 67.3456C81.3246 67.3456 81.9162 67.5387 82.4073 67.9248C82.9016 68.3079 83.2784 68.8639 83.5379 69.5929C83.8005 70.3188 83.9317 71.1946 83.9317 72.2201C83.9317 73.2518 83.802 74.1322 83.5425 74.8612C83.2831 75.5871 82.9077 76.1416 82.4166 76.5247C81.9254 76.9046 81.3308 77.0946 80.6327 77.0946ZM80.6327 76.0752C81.3246 76.0752 81.8621 75.7416 82.2451 75.0744C82.6282 74.4071 82.8197 73.4557 82.8197 72.2201C82.8197 71.3984 82.7317 70.6988 82.5556 70.1211C82.3826 69.5435 82.1324 69.1033 81.805 68.8006C81.4806 68.4978 81.0899 68.3465 80.6327 68.3465C79.9469 68.3465 79.411 68.6847 79.0248 69.3612C78.6387 70.0346 78.4457 70.9876 78.4457 72.2201C78.4457 73.0418 78.5321 73.7399 78.7051 74.3145C78.8781 74.889 79.1268 75.3261 79.4511 75.6258C79.7786 75.9254 80.1724 76.0752 80.6327 76.0752Z" fill="#B6B6B6"/>
<rect x="116" y="119.406" width="28.5" height="148.5" fill="#CBD6F3"/>
<path d="M117.399 275.917H118.771L121.996 283.794H122.107L125.332 275.917H126.703V285.406H125.628V278.196H125.536L122.57 285.406H121.532L118.567 278.196H118.474V285.406H117.399V275.917ZM131.75 285.555C131.108 285.555 130.544 285.402 130.059 285.096C129.577 284.79 129.2 284.362 128.928 283.812C128.66 283.262 128.525 282.62 128.525 281.885C128.525 281.143 128.66 280.496 128.928 279.943C129.2 279.39 129.577 278.961 130.059 278.655C130.544 278.349 131.108 278.196 131.75 278.196C132.393 278.196 132.955 278.349 133.437 278.655C133.922 278.961 134.299 279.39 134.567 279.943C134.839 280.496 134.975 281.143 134.975 281.885C134.975 282.62 134.839 283.262 134.567 283.812C134.299 284.362 133.922 284.79 133.437 285.096C132.955 285.402 132.393 285.555 131.75 285.555ZM131.75 284.572C132.238 284.572 132.64 284.447 132.955 284.197C133.27 283.947 133.503 283.618 133.655 283.21C133.806 282.802 133.882 282.36 133.882 281.885C133.882 281.409 133.806 280.966 133.655 280.555C133.503 280.144 133.27 279.812 132.955 279.559C132.64 279.305 132.238 279.179 131.75 279.179C131.262 279.179 130.861 279.305 130.546 279.559C130.231 279.812 129.997 280.144 129.846 280.555C129.695 280.966 129.619 281.409 129.619 281.885C129.619 282.36 129.695 282.802 129.846 283.21C129.997 283.618 130.231 283.947 130.546 284.197C130.861 284.447 131.262 284.572 131.75 284.572ZM137.738 281.125V285.406H136.644V278.289H137.701V279.401H137.794C137.96 279.04 138.214 278.749 138.553 278.53C138.893 278.308 139.332 278.196 139.869 278.196C140.351 278.196 140.773 278.295 141.134 278.493C141.496 278.688 141.777 278.984 141.978 279.383C142.178 279.778 142.279 280.278 142.279 280.884V285.406H141.185V280.958C141.185 280.399 141.04 279.963 140.75 279.651C140.459 279.336 140.061 279.179 139.554 279.179C139.205 279.179 138.893 279.254 138.618 279.406C138.347 279.557 138.132 279.778 137.974 280.068C137.817 280.359 137.738 280.711 137.738 281.125Z" fill="#271E4A"/>
<rect x="201.5" y="171.156" width="28.5" height="96.75" fill="#FE7E7D"/>
<path d="M204.88 276.936V275.917H211.997V276.936H209.013V285.406H207.864V276.936H204.88ZM217.139 282.496V278.289H218.233V285.406H217.139V284.202H217.065C216.898 284.563 216.639 284.87 216.287 285.124C215.935 285.374 215.49 285.499 214.952 285.499C214.507 285.499 214.112 285.402 213.766 285.207C213.42 285.009 213.148 284.713 212.951 284.317C212.753 283.919 212.654 283.417 212.654 282.811V278.289H213.748V282.737C213.748 283.256 213.893 283.67 214.183 283.979C214.477 284.288 214.85 284.442 215.304 284.442C215.576 284.442 215.853 284.373 216.134 284.234C216.418 284.095 216.656 283.882 216.847 283.595C217.042 283.307 217.139 282.941 217.139 282.496ZM223.22 285.555C222.534 285.555 221.942 285.403 221.445 285.1C220.951 284.795 220.569 284.368 220.301 283.822C220.035 283.272 219.902 282.632 219.902 281.903C219.902 281.174 220.035 280.532 220.301 279.976C220.569 279.417 220.943 278.981 221.422 278.669C221.904 278.354 222.466 278.196 223.108 278.196C223.479 278.196 223.845 278.258 224.207 278.382C224.568 278.505 224.897 278.706 225.194 278.984C225.49 279.259 225.726 279.624 225.902 280.078C226.079 280.532 226.167 281.091 226.167 281.755V282.218H220.68V281.273H225.055C225.055 280.872 224.974 280.513 224.814 280.198C224.656 279.883 224.431 279.634 224.137 279.452C223.847 279.27 223.504 279.179 223.108 279.179C222.673 279.179 222.296 279.287 221.978 279.503C221.663 279.716 221.42 279.994 221.25 280.337C221.081 280.68 220.996 281.048 220.996 281.44V282.07C220.996 282.608 221.088 283.063 221.274 283.437C221.462 283.808 221.723 284.09 222.057 284.285C222.39 284.476 222.778 284.572 223.22 284.572C223.507 284.572 223.766 284.532 223.998 284.452C224.233 284.368 224.435 284.245 224.605 284.081C224.775 283.914 224.906 283.707 224.999 283.46L226.055 283.757C225.944 284.115 225.757 284.43 225.495 284.702C225.232 284.971 224.908 285.181 224.522 285.332C224.136 285.48 223.702 285.555 223.22 285.555Z" fill="#271E4A"/>
<rect x="287" y="130.656" width="28.5" height="138" fill="#A1D7F9"/>
<path d="M291.373 285.406L288.778 275.917H289.946L291.929 283.646H292.021L294.042 275.917H295.339L297.359 283.646H297.452L299.435 275.917H300.603L298.008 285.406H296.822L294.727 277.844H294.653L292.559 285.406H291.373ZM304.208 285.555C303.522 285.555 302.93 285.403 302.433 285.1C301.939 284.795 301.557 284.368 301.289 283.822C301.023 283.272 300.89 282.632 300.89 281.903C300.89 281.174 301.023 280.532 301.289 279.976C301.557 279.417 301.931 278.981 302.41 278.669C302.892 278.354 303.454 278.196 304.096 278.196C304.467 278.196 304.833 278.258 305.195 278.382C305.556 278.505 305.885 278.706 306.182 278.984C306.478 279.259 306.714 279.624 306.89 280.078C307.067 280.532 307.155 281.091 307.155 281.755V282.218H301.668V281.273H306.043C306.043 280.872 305.962 280.513 305.802 280.198C305.644 279.883 305.419 279.634 305.125 279.452C304.835 279.27 304.492 279.179 304.096 279.179C303.661 279.179 303.284 279.287 302.966 279.503C302.651 279.716 302.408 279.994 302.238 280.337C302.069 280.68 301.984 281.048 301.984 281.44V282.07C301.984 282.608 302.076 283.063 302.262 283.437C302.45 283.808 302.711 284.09 303.045 284.285C303.378 284.476 303.766 284.572 304.208 284.572C304.495 284.572 304.754 284.532 304.986 284.452C305.221 284.368 305.423 284.245 305.593 284.081C305.763 283.914 305.894 283.707 305.987 283.46L307.043 283.757C306.932 284.115 306.745 284.43 306.483 284.702C306.22 284.971 305.896 285.181 305.51 285.332C305.124 285.48 304.69 285.555 304.208 285.555ZM311.505 285.555C310.912 285.555 310.389 285.405 309.935 285.105C309.481 284.802 309.125 284.376 308.869 283.826C308.613 283.273 308.484 282.62 308.484 281.866C308.484 281.119 308.613 280.47 308.869 279.92C309.125 279.37 309.482 278.946 309.939 278.646C310.397 278.346 310.925 278.196 311.524 278.196C311.987 278.196 312.353 278.274 312.622 278.428C312.894 278.58 313.101 278.753 313.243 278.947C313.388 279.139 313.501 279.296 313.581 279.42H313.674V275.917H314.767V285.406H313.711V284.313H313.581C313.501 284.442 313.387 284.606 313.238 284.804C313.09 284.998 312.879 285.173 312.604 285.327C312.329 285.479 311.963 285.555 311.505 285.555ZM311.654 284.572C312.092 284.572 312.463 284.458 312.766 284.229C313.069 283.998 313.299 283.678 313.456 283.27C313.614 282.859 313.692 282.385 313.692 281.848C313.692 281.316 313.615 280.851 313.461 280.453C313.306 280.051 313.078 279.739 312.775 279.517C312.472 279.292 312.099 279.179 311.654 279.179C311.19 279.179 310.804 279.298 310.495 279.536C310.19 279.77 309.959 280.09 309.805 280.495C309.654 280.896 309.578 281.347 309.578 281.848C309.578 282.354 309.655 282.815 309.81 283.228C309.967 283.639 310.199 283.967 310.505 284.211C310.814 284.452 311.197 284.572 311.654 284.572Z" fill="#271E4A"/>
<rect x="372.5" y="209.938" width="28.5" height="58.7161" fill="#6164C1"/>
<path d="M375.38 276.934V275.915H382.497V276.934H379.513V285.404H378.364V276.934H375.38ZM385.216 281.123V285.404H384.122V275.915H385.216V279.399H385.309C385.475 279.032 385.726 278.74 386.059 278.524C386.396 278.304 386.844 278.195 387.403 278.195C387.888 278.195 388.313 278.292 388.677 278.486C389.042 278.678 389.324 278.973 389.525 279.371C389.729 279.767 389.831 280.27 389.831 280.882V285.404H388.737V280.956C388.737 280.391 388.591 279.954 388.297 279.645C388.007 279.333 387.604 279.177 387.088 279.177C386.73 279.177 386.408 279.253 386.124 279.404C385.843 279.555 385.621 279.776 385.457 280.066C385.296 280.357 385.216 280.709 385.216 281.123ZM396.317 282.494V278.287H397.41V285.404H396.317V284.2H396.243C396.076 284.561 395.816 284.868 395.464 285.122C395.112 285.372 394.667 285.497 394.13 285.497C393.685 285.497 393.29 285.4 392.944 285.205C392.598 285.007 392.326 284.711 392.128 284.315C391.93 283.917 391.831 283.415 391.831 282.81V278.287H392.925V282.735C392.925 283.254 393.07 283.668 393.361 283.977C393.654 284.286 394.028 284.441 394.482 284.441C394.754 284.441 395.03 284.371 395.311 284.232C395.595 284.093 395.833 283.88 396.025 283.593C396.219 283.305 396.317 282.939 396.317 282.494Z" fill="#271E4A"/>
<rect x="458" y="144.156" width="28.5" height="124.5" fill="#9BE9F8"/>
<path d="M465.899 285.406V275.917H471.589V276.936H467.048V280.143H471.163V281.162H467.048V285.406H465.899ZM473.332 285.406V278.289H474.389V279.364H474.463C474.593 279.012 474.828 278.726 475.167 278.507C475.507 278.288 475.89 278.178 476.316 278.178C476.397 278.178 476.497 278.179 476.618 278.183C476.738 278.186 476.829 278.19 476.891 278.196V279.309C476.854 279.299 476.769 279.285 476.636 279.267C476.506 279.245 476.369 279.234 476.224 279.234C475.878 279.234 475.569 279.307 475.297 279.452C475.028 279.594 474.815 279.792 474.658 280.045C474.503 280.295 474.426 280.581 474.426 280.902V285.406H473.332ZM478.187 285.406V278.289H479.281V285.406H478.187ZM478.743 277.103C478.53 277.103 478.346 277.03 478.192 276.885C478.041 276.74 477.965 276.565 477.965 276.362C477.965 276.158 478.041 275.983 478.192 275.838C478.346 275.693 478.53 275.62 478.743 275.62C478.956 275.62 479.139 275.693 479.29 275.838C479.444 275.983 479.522 276.158 479.522 276.362C479.522 276.565 479.444 276.74 479.29 276.885C479.139 277.03 478.956 277.103 478.743 277.103Z" fill="#271E4A"/>
<rect x="543.5" y="76.6562" width="28.5" height="192" fill="#F1F2F7"/>
<path d="M554.339 278.289C554.283 277.82 554.058 277.455 553.662 277.196C553.267 276.936 552.782 276.806 552.207 276.806C551.787 276.806 551.42 276.874 551.104 277.01C550.792 277.146 550.548 277.333 550.372 277.571C550.199 277.809 550.113 278.079 550.113 278.382C550.113 278.635 550.173 278.853 550.294 279.035C550.417 279.214 550.575 279.364 550.766 279.485C550.958 279.602 551.159 279.699 551.369 279.777C551.579 279.851 551.772 279.911 551.948 279.957L552.912 280.217C553.159 280.282 553.434 280.371 553.736 280.485C554.042 280.6 554.334 280.756 554.612 280.953C554.893 281.148 555.125 281.398 555.307 281.704C555.489 282.01 555.58 282.385 555.58 282.83C555.58 283.343 555.446 283.806 555.177 284.22C554.912 284.634 554.522 284.963 554.01 285.207C553.5 285.451 552.881 285.573 552.152 285.573C551.472 285.573 550.884 285.463 550.386 285.244C549.892 285.025 549.503 284.719 549.219 284.327C548.938 283.934 548.778 283.479 548.741 282.96H549.928C549.958 283.318 550.079 283.615 550.289 283.849C550.502 284.081 550.771 284.254 551.095 284.368C551.423 284.48 551.775 284.535 552.152 284.535C552.59 284.535 552.984 284.464 553.333 284.322C553.682 284.177 553.959 283.976 554.163 283.72C554.366 283.46 554.468 283.157 554.468 282.811C554.468 282.496 554.38 282.24 554.204 282.042C554.028 281.845 553.797 281.684 553.509 281.56C553.222 281.437 552.912 281.329 552.578 281.236L551.41 280.902C550.669 280.689 550.082 280.385 549.65 279.99C549.217 279.594 549.001 279.077 549.001 278.437C549.001 277.906 549.144 277.443 549.432 277.047C549.722 276.649 550.111 276.34 550.599 276.121C551.091 275.898 551.639 275.787 552.244 275.787C552.856 275.787 553.4 275.897 553.875 276.116C554.351 276.332 554.728 276.629 555.006 277.006C555.287 277.383 555.435 277.81 555.451 278.289H554.339ZM559.416 285.573C558.965 285.573 558.556 285.488 558.188 285.318C557.82 285.145 557.528 284.897 557.312 284.572C557.096 284.245 556.988 283.849 556.988 283.386C556.988 282.978 557.068 282.648 557.229 282.394C557.389 282.138 557.604 281.937 557.873 281.792C558.142 281.647 558.438 281.539 558.763 281.468C559.09 281.394 559.419 281.335 559.749 281.292C560.182 281.236 560.533 281.194 560.801 281.167C561.073 281.136 561.271 281.085 561.394 281.014C561.521 280.943 561.584 280.819 561.584 280.643V280.606C561.584 280.149 561.459 279.794 561.209 279.54C560.962 279.287 560.587 279.16 560.083 279.16C559.561 279.16 559.152 279.275 558.855 279.503C558.559 279.732 558.35 279.976 558.23 280.235L557.192 279.865C557.377 279.432 557.624 279.095 557.933 278.854C558.245 278.61 558.585 278.441 558.953 278.345C559.323 278.246 559.688 278.196 560.046 278.196C560.275 278.196 560.537 278.224 560.834 278.28C561.133 278.332 561.422 278.442 561.7 278.609C561.981 278.776 562.215 279.027 562.4 279.364C562.585 279.701 562.678 280.152 562.678 280.717V285.406H561.584V284.442H561.529C561.455 284.597 561.331 284.762 561.158 284.938C560.985 285.114 560.755 285.264 560.468 285.388C560.18 285.511 559.83 285.573 559.416 285.573ZM559.583 284.591C560.015 284.591 560.38 284.506 560.676 284.336C560.976 284.166 561.201 283.947 561.353 283.678C561.507 283.409 561.584 283.127 561.584 282.83V281.829C561.538 281.885 561.436 281.936 561.279 281.982C561.124 282.025 560.945 282.064 560.741 282.098C560.54 282.129 560.344 282.157 560.153 282.181C559.964 282.203 559.811 282.221 559.694 282.237C559.41 282.274 559.144 282.334 558.897 282.418C558.653 282.498 558.455 282.62 558.304 282.784C558.156 282.944 558.081 283.164 558.081 283.442C558.081 283.822 558.222 284.109 558.503 284.303C558.787 284.495 559.147 284.591 559.583 284.591ZM567.769 278.289V279.216H564.081V278.289H567.769ZM565.156 276.584H566.249V283.367C566.249 283.676 566.294 283.908 566.384 284.063C566.476 284.214 566.594 284.316 566.736 284.368C566.881 284.418 567.034 284.442 567.194 284.442C567.315 284.442 567.414 284.436 567.491 284.424C567.568 284.408 567.63 284.396 567.676 284.387L567.899 285.369C567.825 285.397 567.721 285.425 567.588 285.453C567.455 285.483 567.287 285.499 567.083 285.499C566.774 285.499 566.472 285.433 566.175 285.3C565.882 285.167 565.638 284.965 565.443 284.693C565.251 284.421 565.156 284.078 565.156 283.664V276.584Z" fill="#271E4A"/>
<rect x="629" y="95.4062" width="28.5" height="173.25" fill="#9CC5DE"/>
<path d="M639.839 278.289C639.783 277.82 639.558 277.455 639.162 277.196C638.767 276.936 638.282 276.806 637.707 276.806C637.287 276.806 636.92 276.874 636.604 277.01C636.292 277.146 636.048 277.333 635.872 277.571C635.699 277.809 635.613 278.079 635.613 278.382C635.613 278.635 635.673 278.853 635.794 279.035C635.917 279.214 636.075 279.364 636.266 279.485C636.458 279.602 636.659 279.699 636.869 279.777C637.079 279.851 637.272 279.911 637.448 279.957L638.412 280.217C638.659 280.282 638.934 280.371 639.236 280.485C639.542 280.6 639.834 280.756 640.112 280.953C640.393 281.148 640.625 281.398 640.807 281.704C640.989 282.01 641.08 282.385 641.08 282.83C641.08 283.343 640.946 283.806 640.677 284.22C640.412 284.634 640.022 284.963 639.51 285.207C639 285.451 638.381 285.573 637.652 285.573C636.972 285.573 636.384 285.463 635.886 285.244C635.392 285.025 635.003 284.719 634.719 284.327C634.438 283.934 634.278 283.479 634.241 282.96H635.428C635.458 283.318 635.579 283.615 635.789 283.849C636.002 284.081 636.271 284.254 636.595 284.368C636.923 284.48 637.275 284.535 637.652 284.535C638.09 284.535 638.484 284.464 638.833 284.322C639.182 284.177 639.459 283.976 639.663 283.72C639.866 283.46 639.968 283.157 639.968 282.811C639.968 282.496 639.88 282.24 639.704 282.042C639.528 281.845 639.297 281.684 639.009 281.56C638.722 281.437 638.412 281.329 638.078 281.236L636.91 280.902C636.169 280.689 635.582 280.385 635.15 279.99C634.717 279.594 634.501 279.077 634.501 278.437C634.501 277.906 634.644 277.443 634.932 277.047C635.222 276.649 635.611 276.34 636.099 276.121C636.591 275.898 637.139 275.787 637.744 275.787C638.356 275.787 638.9 275.897 639.375 276.116C639.851 276.332 640.228 276.629 640.506 277.006C640.787 277.383 640.935 277.81 640.951 278.289H639.839ZM647.307 282.496V278.289H648.4V285.406H647.307V284.202H647.233C647.066 284.563 646.806 284.87 646.454 285.124C646.102 285.374 645.657 285.499 645.12 285.499C644.675 285.499 644.28 285.402 643.934 285.207C643.588 285.009 643.316 284.713 643.118 284.317C642.92 283.919 642.821 283.417 642.821 282.811V278.289H643.915V282.737C643.915 283.256 644.06 283.67 644.351 283.979C644.644 284.288 645.018 284.442 645.472 284.442C645.744 284.442 646.02 284.373 646.301 284.234C646.585 284.095 646.823 283.882 647.015 283.595C647.209 283.307 647.307 282.941 647.307 282.496ZM651.497 281.125V285.406H650.403V278.289H651.46V279.401H651.552C651.719 279.04 651.972 278.749 652.312 278.53C652.652 278.308 653.091 278.196 653.628 278.196C654.11 278.196 654.532 278.295 654.893 278.493C655.254 278.688 655.536 278.984 655.736 279.383C655.937 279.778 656.037 280.278 656.037 280.884V285.406H654.944V280.958C654.944 280.399 654.799 279.963 654.508 279.651C654.218 279.336 653.82 279.179 653.313 279.179C652.964 279.179 652.652 279.254 652.377 279.406C652.105 279.557 651.89 279.778 651.733 280.068C651.575 280.359 651.497 280.711 651.497 281.125Z" fill="#271E4A"/>
<rect x="113.75" y="321.156" width="7.5" height="7.5" fill="#CBD6F3"/>
<rect x="201.5" y="321.156" width="7.5" height="7.5" fill="#FE7E7D"/>
<rect x="289.25" y="321.156" width="7.5" height="7.5" fill="#A1D7F9"/>
<rect x="377" y="321.156" width="7.5" height="7.5" fill="#6164C1"/>
<rect x="464.75" y="321.156" width="7.5" height="7.5" fill="#9BE9F8"/>
</svg>
