<svg width="597" height="642" viewBox="0 0 597 642" fill="none" xmlns="http://www.w3.org/2000/svg">
<circle cx="314.725" cy="359.893" r="133.924" fill="#03A9F4"/>
<circle cx="314.412" cy="356.81" r="195.398" stroke="#03A9F4" stroke-width="0.487885"/>
<circle cx="314.509" cy="359.343" r="281.997" stroke="#03A9F4" stroke-width="0.487885"/>
<g filter="url(#filter0_d_19_1254)">
<ellipse cx="150.484" cy="450.731" rx="30.2489" ry="30.0049" fill="#4CAF50"/>
<path d="M178.781 450.731C178.781 466.21 166.127 478.785 150.484 478.785C134.841 478.785 122.186 466.21 122.186 450.731C122.186 435.253 134.841 422.678 150.484 422.678C166.127 422.678 178.781 435.253 178.781 450.731Z" stroke="white" stroke-width="3.90308"/>
</g>
<ellipse cx="150.484" cy="450.696" rx="4.73945" ry="4.76638" fill="white"/>
<path fill-rule="evenodd" clip-rule="evenodd" d="M142.189 450.694C142.189 447.946 143.563 445.54 145.619 444.212L143.905 442.387C143.441 442.73 143.003 443.119 142.595 443.553C140.805 445.461 139.819 447.997 139.819 450.694C139.819 453.391 140.805 455.927 142.595 457.835C143.003 458.269 143.441 458.658 143.905 459.001L145.619 457.176C143.563 455.848 142.189 453.442 142.189 450.694V450.694Z" fill="white"/>
<path fill-rule="evenodd" clip-rule="evenodd" d="M158.777 450.694C158.777 453.442 157.403 455.848 155.347 457.176L157.061 459.001C157.525 458.658 157.963 458.269 158.371 457.835C160.161 455.927 161.147 453.391 161.147 450.694C161.147 447.997 160.161 445.461 158.371 443.553C157.963 443.119 157.525 442.73 157.061 442.387L155.347 444.212C157.403 445.54 158.777 447.946 158.777 450.694V450.694Z" fill="white"/>
<path fill-rule="evenodd" clip-rule="evenodd" d="M136.265 450.693C136.265 446.554 138.135 442.88 141.024 440.578L139.333 438.777C138.889 439.15 138.464 439.552 138.06 439.982C136.755 441.373 135.73 442.992 135.013 444.796C134.271 446.665 133.895 448.649 133.895 450.693C133.895 452.737 134.271 454.721 135.013 456.59C135.73 458.394 136.755 460.014 138.06 461.404C138.464 461.835 138.889 462.237 139.333 462.609L141.024 460.808C138.135 458.506 136.265 454.832 136.265 450.693V450.693Z" fill="white"/>
<path fill-rule="evenodd" clip-rule="evenodd" d="M164.701 450.693C164.701 454.832 162.831 458.506 159.943 460.808L161.633 462.584C162.077 462.212 162.502 461.835 162.907 461.404C164.212 460.014 165.237 458.394 165.953 456.59C166.695 454.721 167.071 452.737 167.071 450.693C167.071 448.649 166.695 446.665 165.953 444.796C165.237 442.992 164.212 441.373 162.907 439.982C162.503 439.552 162.077 439.15 161.633 438.777L159.943 440.578C162.831 442.88 164.701 446.554 164.701 450.693V450.693Z" fill="white"/>
<g filter="url(#filter1_d_19_1254)">
<circle cx="311.242" cy="71.6415" r="44.6415" fill="#4CAF50"/>
<circle cx="311.242" cy="71.6415" r="42.6899" stroke="white" stroke-width="3.90308"/>
</g>
<path fill-rule="evenodd" clip-rule="evenodd" d="M333.486 57.2172H321.577V54.1748C321.477 51.3801 319.427 49.2891 316.504 49.2891H312.065H307.626C304.713 49.2891 302.652 51.3801 302.553 54.1748V57.2172H290.644C290.208 57.2172 289.871 57.574 289.871 58.01V86.5513C289.871 86.9873 290.198 87.3441 290.644 87.3441H333.496C333.932 87.3441 334.269 86.9873 334.269 86.5513V58.01C334.259 57.574 333.932 57.2172 333.486 57.2172V57.2172ZM305.484 54.3753C305.484 54.3348 305.484 54.3043 305.484 54.2739C305.484 54.2435 305.484 54.213 305.484 54.1725C305.484 53.1886 306.336 52.2148 307.347 52.2148H311.826H316.306C317.307 52.2148 318.169 53.1784 318.169 54.1725C318.169 54.2029 318.169 54.2333 318.169 54.2739C318.169 54.3145 318.169 54.3348 318.169 54.3753V57.0937H305.484V54.3753V54.3753ZM321.584 74.6616H315.241V81.0041H308.899V74.6616H302.556V68.3191H308.899V61.9766H315.241V68.3191H321.584V74.6616V74.6616Z" fill="white"/>
<g filter="url(#filter2_d_19_1254)">
<ellipse cx="87.5462" cy="522.449" rx="22.4427" ry="22.1988" fill="#F42E88"/>
<path d="M108.037 522.449C108.037 533.611 98.8833 542.696 87.5462 542.696C76.2091 542.696 67.0551 533.611 67.0551 522.449C67.0551 511.287 76.2091 502.202 87.5462 502.202C98.8833 502.202 108.037 511.287 108.037 522.449Z" stroke="white" stroke-width="3.90308"/>
</g>
<path fill-rule="evenodd" clip-rule="evenodd" d="M86.7634 527.133C85.8132 527.67 84.7142 527.977 83.543 527.977C82.3721 527.977 81.2733 527.67 80.3231 527.133C77.8024 527.898 76.2578 530.434 75.689 532.667H91.3974C90.8288 530.434 89.2843 527.898 86.7634 527.133V527.133Z" fill="white"/>
<path fill-rule="evenodd" clip-rule="evenodd" d="M83.5435 515.223C80.418 515.223 77.8843 517.743 77.8843 520.853C77.8843 523.962 80.418 526.483 83.5435 526.483C86.669 526.483 89.2027 523.962 89.2027 520.853C89.2027 517.743 86.6689 515.223 83.5435 515.223V515.223ZM83.5437 525.14C81.7441 525.14 80.2063 523.943 79.5889 522.453H87.4986C86.8811 523.943 85.3433 525.14 83.5437 525.14V525.14Z" fill="white"/>
<path fill-rule="evenodd" clip-rule="evenodd" d="M91.1267 529.234H99.465C98.9014 527.011 97.3705 524.91 94.8718 524.148C93.9299 524.683 92.8406 524.989 91.6797 524.989C90.8944 524.989 90.1421 524.848 89.4458 524.592C89.0514 525.252 88.5491 525.947 87.9639 526.44C89.3596 526.977 90.4138 528.176 91.1267 529.234V529.234Z" fill="white"/>
<path fill-rule="evenodd" clip-rule="evenodd" d="M90.2762 519.495H95.5999C94.9879 520.978 93.4636 522.158 91.6799 522.158C91.2097 522.158 90.7579 522.068 90.3356 521.919C90.2647 522.38 90.1479 522.823 89.9902 523.249C90.5235 523.417 91.091 523.506 91.6799 523.506C94.7779 523.506 97.2893 520.996 97.2893 517.901C97.2893 514.806 94.7779 512.297 91.6799 512.297C89.6938 512.297 87.9489 513.34 86.9521 514.896C88.6373 515.863 89.8745 517.537 90.2762 519.495V519.495Z" fill="white"/>
<g filter="url(#filter3_d_19_1254)">
<ellipse cx="447.117" cy="216.052" rx="15.6123" ry="15.3684" fill="#F42E88"/>
<path d="M460.778 216.052C460.778 223.433 454.691 229.469 447.117 229.469C439.544 229.469 433.457 223.433 433.457 216.052C433.457 208.671 439.544 202.635 447.117 202.635C454.691 202.635 460.778 208.671 460.778 216.052Z" stroke="white" stroke-width="3.90308"/>
</g>
<path fill-rule="evenodd" clip-rule="evenodd" d="M451.864 211.218C450.727 209.988 448.88 209.988 447.743 211.218L446.969 212.051L446.195 211.215C445.056 209.985 443.212 209.985 442.075 211.215C440.795 212.597 440.795 214.841 442.075 216.223L446.969 221.514L451.864 216.226C453.144 214.844 453.144 212.6 451.864 211.218V211.218Z" fill="white"/>
<g filter="url(#filter4_d_19_1254)">
<ellipse cx="431.505" cy="531.223" rx="50.74" ry="50.4961" fill="#F42E88"/>
<path d="M480.294 531.223C480.294 558.024 458.459 579.767 431.505 579.767C404.551 579.767 382.717 558.024 382.717 531.223C382.717 504.421 404.551 482.678 431.505 482.678C458.459 482.678 480.294 504.421 480.294 531.223Z" stroke="white" stroke-width="3.90308"/>
</g>
<path fill-rule="evenodd" clip-rule="evenodd" d="M455.897 534.066C453.368 534.066 451.224 535.724 450.475 537.975H445.854L442.481 527.857C442.222 527.081 441.494 526.559 440.676 526.559C440.662 526.559 440.649 526.559 440.636 526.56C439.801 526.577 439.076 527.133 438.846 527.932L433.556 546.324L427.33 509.117C427.182 508.231 426.444 507.414 425.453 507.414C424.462 507.414 423.825 508.098 423.607 508.97L416.355 537.975H404.523V541.765H417.842C418.716 541.765 419.477 541.173 419.688 540.328L425.084 518.749L431.187 555.225C431.333 556.099 432.067 556.637 432.955 556.687C432.992 556.689 433.028 556.69 433.064 556.69C433.908 556.69 434.658 556.252 434.893 555.436L440.809 534.87L442.675 540.467C442.933 541.242 443.661 541.765 444.481 541.765H450.559C451.375 543.897 453.457 545.437 455.897 545.437C459.05 545.437 461.605 542.773 461.605 539.633C461.605 536.493 459.05 534.066 455.897 534.066V534.066Z" fill="white"/>
<g filter="url(#filter5_d_19_1254)">
<ellipse cx="505.663" cy="316.074" rx="22.4427" ry="22.1988" fill="#03ACF2"/>
<path d="M526.155 316.074C526.155 327.236 517.001 336.321 505.663 336.321C494.326 336.321 485.172 327.236 485.172 316.074C485.172 304.912 494.326 295.827 505.663 295.827C517.001 295.827 526.155 304.912 526.155 316.074Z" stroke="white" stroke-width="3.90308"/>
</g>
<path fill-rule="evenodd" clip-rule="evenodd" d="M515.761 307.977C514.582 308.235 513.464 308.522 512.404 308.83C509.875 309.566 507.684 310.425 505.813 311.314C504.608 311.886 504.173 312.146 502.592 313.044C498.946 315.115 496.758 317.345 496.758 321.874C496.758 326.404 500.236 329.827 505.759 329.827C511.283 329.827 514.761 326.404 514.761 321.874C514.761 317.345 510.948 313.936 515.761 307.977V307.977V307.977Z" fill="white"/>
<path fill-rule="evenodd" clip-rule="evenodd" d="M495.758 305.992C498.35 308.915 498.547 312.441 498.22 314.977C499.018 314.277 500.168 313.38 501.729 312.408C502.132 312.157 502.561 311.901 503.02 311.643C503.743 311.235 504.491 310.847 505.26 310.478C504.69 309.802 503.88 309.199 502.97 308.672C499.923 306.908 495.758 305.992 495.758 305.992V305.992V305.992Z" fill="white"/>
<path fill-rule="evenodd" clip-rule="evenodd" d="M511.76 304.008C511.76 304.008 506.845 304.152 503.591 307.886C504.631 308.5 505.45 309.158 506.027 309.843L506.197 310.045C508.519 309.003 511.706 307.929 513.761 307.437C513.362 305.983 511.76 304.008 511.76 304.008V304.008V304.008Z" fill="white"/>
<path fill-rule="evenodd" clip-rule="evenodd" d="M500.759 302.02C499.805 303.41 499.153 304.831 498.862 305.744C500.182 306.138 501.08 306.564 502.7 307.393C503.294 306.686 503.976 306.051 504.738 305.497C502.905 302.991 500.759 302.02 500.759 302.02V302.02V302.02Z" fill="white"/>
<g filter="url(#filter6_d_19_1254)">
<ellipse cx="79.74" cy="200.449" rx="50.74" ry="50.4961" fill="#03ACF2"/>
<path d="M128.529 200.449C128.529 227.251 106.694 248.994 79.74 248.994C52.786 248.994 30.9515 227.251 30.9515 200.449C30.9515 173.648 52.786 151.905 79.74 151.905C106.694 151.905 128.529 173.648 128.529 200.449Z" stroke="white" stroke-width="3.90308"/>
</g>
<path fill-rule="evenodd" clip-rule="evenodd" d="M107.601 223.042L91.4234 195.709V175.14C91.4234 174.083 90.5315 173.219 89.4337 173.219C88.336 173.219 87.4441 174.069 87.4441 175.14V196.216C87.4441 196.463 87.5264 196.71 87.6225 196.944C86.5796 195.421 84.7958 194.419 82.765 194.419C79.5403 194.419 76.9332 196.93 76.9332 200.045C76.9332 202.35 78.374 204.367 80.4185 205.19H70.5389L75.3415 197.163C75.5061 196.875 75.6296 196.546 75.6296 196.216V192.045C76.1785 192.484 77.0018 192.745 77.8388 192.745C79.9383 192.745 81.6123 191.112 81.6123 189.095C81.6123 187.078 79.9383 185.445 77.8388 185.445C77.0018 185.445 76.1785 185.706 75.6296 186.145V175.14C75.6296 174.083 74.7377 173.219 73.64 173.219C72.5422 173.219 71.6503 174.069 71.6503 175.14V195.709L55.4861 223.042C55.143 223.633 55.1293 224.36 55.4861 224.95C55.8429 225.54 56.4741 225.91 57.1876 225.91H81.5437H105.9C106.6 225.91 107.245 225.554 107.601 224.95C107.958 224.373 107.944 223.633 107.601 223.042V223.042ZM85.1392 205.191C87.1837 204.367 88.6245 202.337 88.6245 200.045C88.6245 199.263 88.4598 198.508 88.1579 197.836L92.4117 205.191H85.1392V205.191Z" fill="white"/>
<path fill-rule="evenodd" clip-rule="evenodd" d="M82.7927 182.083C84.4393 182.083 85.7703 180.794 85.7703 179.216C85.7703 177.624 84.4393 176.348 82.7927 176.348C81.1461 176.348 79.815 177.638 79.815 179.216C79.8013 180.794 81.1461 182.083 82.7927 182.083V182.083Z" fill="white"/>
<path d="M227.752 331.464H230.691L235.018 343.831L239.345 331.464H242.283L236.198 348.309H233.838L227.752 331.464ZM226.167 331.464H229.094L229.626 343.519V348.309H226.167V331.464ZM240.941 331.464H243.88V348.309H240.409V343.519L240.941 331.464ZM252.476 348.54C251.504 348.54 250.632 348.386 249.861 348.077C249.09 347.761 248.434 347.325 247.894 346.77C247.362 346.215 246.953 345.571 246.668 344.838C246.383 344.097 246.24 343.311 246.24 342.478V342.015C246.24 341.066 246.375 340.199 246.645 339.412C246.915 338.625 247.3 337.943 247.802 337.364C248.311 336.786 248.928 336.342 249.653 336.034C250.378 335.717 251.195 335.559 252.106 335.559C252.993 335.559 253.779 335.706 254.466 335.999C255.152 336.292 255.727 336.708 256.19 337.248C256.66 337.788 257.015 338.436 257.254 339.192C257.493 339.94 257.613 340.773 257.613 341.691V343.079H247.663V340.858H254.338V340.603C254.338 340.141 254.254 339.728 254.084 339.366C253.922 338.995 253.675 338.702 253.343 338.486C253.012 338.27 252.588 338.162 252.071 338.162C251.631 338.162 251.253 338.259 250.937 338.452C250.621 338.644 250.362 338.914 250.162 339.261C249.969 339.609 249.823 340.017 249.722 340.488C249.63 340.951 249.583 341.46 249.583 342.015V342.478C249.583 342.979 249.653 343.442 249.792 343.866C249.938 344.29 250.143 344.657 250.405 344.965C250.675 345.274 250.999 345.513 251.377 345.682C251.762 345.852 252.198 345.937 252.684 345.937C253.286 345.937 253.845 345.821 254.362 345.59C254.886 345.351 255.337 344.992 255.715 344.514L257.335 346.272C257.073 346.65 256.714 347.013 256.259 347.36C255.812 347.707 255.272 347.992 254.639 348.216C254.007 348.432 253.286 348.54 252.476 348.54ZM266.903 345.578V330.538H270.258V348.309H267.238L266.903 345.578ZM258.989 342.2V341.957C258.989 341.001 259.097 340.133 259.313 339.354C259.529 338.567 259.845 337.892 260.262 337.329C260.678 336.766 261.191 336.331 261.801 336.022C262.41 335.714 263.104 335.559 263.883 335.559C264.616 335.559 265.256 335.714 265.804 336.022C266.359 336.331 266.829 336.77 267.215 337.341C267.608 337.904 267.925 338.571 268.164 339.342C268.403 340.106 268.576 340.943 268.684 341.853V342.385C268.576 343.257 268.403 344.067 268.164 344.815C267.925 345.563 267.608 346.218 267.215 346.781C266.829 347.337 266.359 347.769 265.804 348.077C265.248 348.386 264.6 348.54 263.86 348.54C263.081 348.54 262.387 348.382 261.777 348.066C261.176 347.749 260.667 347.306 260.25 346.735C259.842 346.164 259.529 345.493 259.313 344.722C259.097 343.951 258.989 343.11 258.989 342.2ZM262.321 341.957V342.2C262.321 342.717 262.36 343.199 262.437 343.646C262.522 344.094 262.657 344.491 262.842 344.838C263.035 345.177 263.281 345.443 263.582 345.636C263.891 345.821 264.265 345.914 264.704 345.914C265.275 345.914 265.746 345.786 266.116 345.532C266.486 345.27 266.768 344.911 266.96 344.456C267.161 344.001 267.277 343.476 267.308 342.883V341.367C267.284 340.881 267.215 340.445 267.099 340.06C266.991 339.666 266.829 339.331 266.613 339.053C266.405 338.776 266.143 338.56 265.827 338.405C265.518 338.251 265.152 338.174 264.728 338.174C264.296 338.174 263.925 338.274 263.617 338.475C263.308 338.668 263.058 338.934 262.865 339.273C262.68 339.612 262.541 340.013 262.448 340.476C262.364 340.931 262.321 341.425 262.321 341.957ZM276.378 335.791V348.309H273.034V335.791H276.378ZM272.826 332.528C272.826 332.042 272.996 331.641 273.335 331.325C273.675 331.009 274.13 330.851 274.7 330.851C275.263 330.851 275.715 331.009 276.054 331.325C276.401 331.641 276.575 332.042 276.575 332.528C276.575 333.014 276.401 333.415 276.054 333.731C275.715 334.048 275.263 334.206 274.7 334.206C274.13 334.206 273.675 334.048 273.335 333.731C272.996 333.415 272.826 333.014 272.826 332.528ZM284.303 345.937C284.712 345.937 285.074 345.86 285.39 345.706C285.707 345.544 285.953 345.32 286.131 345.034C286.316 344.741 286.412 344.398 286.42 344.005H289.555C289.548 344.884 289.312 345.667 288.85 346.353C288.387 347.032 287.766 347.568 286.987 347.962C286.208 348.347 285.336 348.54 284.372 348.54C283.4 348.54 282.552 348.378 281.827 348.054C281.11 347.73 280.512 347.283 280.034 346.712C279.556 346.134 279.197 345.463 278.958 344.699C278.719 343.928 278.599 343.102 278.599 342.223V341.888C278.599 341.001 278.719 340.175 278.958 339.412C279.197 338.641 279.556 337.97 280.034 337.399C280.512 336.82 281.11 336.369 281.827 336.045C282.544 335.721 283.385 335.559 284.349 335.559C285.375 335.559 286.273 335.756 287.045 336.149C287.824 336.543 288.433 337.106 288.873 337.838C289.32 338.563 289.548 339.423 289.555 340.418H286.42C286.412 340.002 286.324 339.624 286.154 339.285C285.992 338.945 285.753 338.675 285.437 338.475C285.128 338.266 284.746 338.162 284.291 338.162C283.805 338.162 283.408 338.266 283.1 338.475C282.791 338.675 282.552 338.953 282.382 339.308C282.213 339.655 282.093 340.052 282.024 340.499C281.962 340.939 281.931 341.402 281.931 341.888V342.223C281.931 342.709 281.962 343.176 282.024 343.623C282.085 344.07 282.201 344.468 282.371 344.815C282.548 345.162 282.791 345.436 283.1 345.636C283.408 345.837 283.809 345.937 284.303 345.937ZM298.244 345.486V339.909C298.244 339.508 298.178 339.165 298.047 338.88C297.916 338.587 297.712 338.359 297.434 338.197C297.164 338.035 296.813 337.954 296.381 337.954C296.011 337.954 295.691 338.02 295.421 338.151C295.151 338.274 294.943 338.455 294.796 338.695C294.65 338.926 294.576 339.2 294.576 339.516H291.244C291.244 338.984 291.368 338.479 291.615 338C291.861 337.522 292.22 337.102 292.691 336.739C293.161 336.369 293.72 336.08 294.368 335.872C295.024 335.663 295.756 335.559 296.566 335.559C297.538 335.559 298.402 335.721 299.158 336.045C299.914 336.369 300.508 336.855 300.939 337.503C301.379 338.151 301.599 338.961 301.599 339.932V345.289C301.599 345.975 301.641 346.538 301.726 346.978C301.811 347.41 301.934 347.788 302.096 348.112V348.309H298.73C298.568 347.969 298.444 347.545 298.359 347.036C298.282 346.519 298.244 346.002 298.244 345.486ZM298.683 340.684L298.707 342.57H296.844C296.404 342.57 296.022 342.62 295.699 342.721C295.375 342.821 295.109 342.964 294.9 343.149C294.692 343.326 294.538 343.534 294.438 343.773C294.345 344.013 294.299 344.275 294.299 344.56C294.299 344.846 294.364 345.104 294.495 345.335C294.626 345.559 294.815 345.736 295.062 345.867C295.309 345.991 295.598 346.053 295.93 346.053C296.431 346.053 296.867 345.952 297.237 345.752C297.607 345.551 297.893 345.304 298.093 345.011C298.302 344.718 298.41 344.441 298.417 344.178L299.297 345.59C299.173 345.906 299.004 346.234 298.788 346.573C298.579 346.913 298.313 347.233 297.989 347.533C297.665 347.827 297.276 348.069 296.821 348.262C296.366 348.447 295.826 348.54 295.201 348.54C294.407 348.54 293.686 348.382 293.038 348.066C292.397 347.742 291.888 347.298 291.51 346.735C291.14 346.164 290.955 345.517 290.955 344.792C290.955 344.136 291.079 343.554 291.325 343.045C291.572 342.536 291.935 342.107 292.413 341.76C292.899 341.406 293.504 341.14 294.229 340.962C294.954 340.777 295.795 340.684 296.751 340.684H298.683ZM307.684 330.538V348.309H304.341V330.538H307.684ZM317.634 331.464L311.456 349.755H308.98L315.158 331.464H317.634ZM328.208 343.901C328.208 343.6 328.162 343.33 328.069 343.091C327.985 342.844 327.823 342.62 327.583 342.42C327.344 342.212 327.009 342.007 326.577 341.807C326.145 341.606 325.586 341.398 324.899 341.182C324.136 340.935 323.411 340.657 322.724 340.349C322.046 340.04 321.444 339.682 320.92 339.273C320.403 338.857 319.994 338.374 319.693 337.827C319.4 337.279 319.254 336.643 319.254 335.918C319.254 335.216 319.408 334.58 319.716 334.009C320.025 333.431 320.457 332.937 321.012 332.528C321.567 332.112 322.223 331.792 322.979 331.568C323.742 331.344 324.579 331.232 325.489 331.232C326.731 331.232 327.815 331.456 328.74 331.903C329.666 332.351 330.383 332.964 330.892 333.743C331.409 334.522 331.667 335.413 331.667 336.415H328.22C328.22 335.922 328.116 335.49 327.907 335.12C327.707 334.742 327.398 334.445 326.982 334.229C326.573 334.013 326.056 333.905 325.432 333.905C324.83 333.905 324.329 333.997 323.928 334.183C323.526 334.36 323.226 334.603 323.025 334.911C322.825 335.212 322.724 335.552 322.724 335.929C322.724 336.215 322.794 336.473 322.933 336.705C323.079 336.936 323.295 337.152 323.58 337.352C323.866 337.553 324.217 337.742 324.633 337.919C325.05 338.097 325.532 338.27 326.079 338.44C326.997 338.718 327.803 339.03 328.497 339.377C329.199 339.724 329.785 340.114 330.256 340.546C330.726 340.978 331.081 341.467 331.32 342.015C331.559 342.563 331.679 343.183 331.679 343.878C331.679 344.61 331.536 345.266 331.251 345.844C330.966 346.423 330.553 346.913 330.013 347.314C329.473 347.715 328.829 348.019 328.081 348.228C327.333 348.436 326.496 348.54 325.57 348.54C324.737 348.54 323.916 348.432 323.106 348.216C322.296 347.992 321.56 347.657 320.896 347.21C320.241 346.762 319.716 346.191 319.323 345.497C318.93 344.803 318.733 343.982 318.733 343.033H322.215C322.215 343.557 322.296 344.001 322.458 344.363C322.62 344.726 322.848 345.019 323.141 345.243C323.442 345.466 323.796 345.628 324.205 345.729C324.622 345.829 325.077 345.879 325.57 345.879C326.172 345.879 326.666 345.794 327.051 345.625C327.445 345.455 327.734 345.22 327.919 344.919C328.112 344.618 328.208 344.279 328.208 343.901ZM341.235 345.312V335.791H344.567V348.309H341.432L341.235 345.312ZM341.605 342.744L342.589 342.721C342.589 343.554 342.492 344.329 342.3 345.046C342.107 345.756 341.818 346.373 341.432 346.897C341.046 347.414 340.56 347.819 339.974 348.112C339.388 348.397 338.698 348.54 337.903 348.54C337.294 348.54 336.731 348.455 336.214 348.285C335.705 348.108 335.265 347.834 334.895 347.464C334.533 347.086 334.247 346.604 334.039 346.018C333.839 345.424 333.738 344.711 333.738 343.878V335.791H337.07V343.901C337.07 344.271 337.113 344.583 337.198 344.838C337.29 345.092 337.417 345.301 337.579 345.463C337.741 345.625 337.93 345.74 338.146 345.81C338.37 345.879 338.617 345.914 338.887 345.914C339.573 345.914 340.113 345.775 340.506 345.497C340.907 345.22 341.189 344.842 341.351 344.363C341.521 343.878 341.605 343.338 341.605 342.744ZM350.444 338.521V348.309H347.112V335.791H350.248L350.444 338.521ZM354.216 335.71L354.158 338.799C353.996 338.776 353.799 338.756 353.568 338.741C353.344 338.718 353.14 338.706 352.955 338.706C352.484 338.706 352.076 338.768 351.729 338.891C351.389 339.007 351.104 339.18 350.872 339.412C350.649 339.643 350.479 339.925 350.363 340.256C350.255 340.588 350.194 340.966 350.178 341.39L349.507 341.182C349.507 340.372 349.588 339.628 349.75 338.949C349.912 338.263 350.147 337.665 350.456 337.156C350.772 336.647 351.158 336.253 351.613 335.976C352.068 335.698 352.588 335.559 353.175 335.559C353.36 335.559 353.549 335.575 353.742 335.606C353.934 335.629 354.093 335.663 354.216 335.71ZM363.483 335.791H366.502V347.892C366.502 349.034 366.248 350.002 365.739 350.796C365.238 351.598 364.536 352.204 363.633 352.612C362.731 353.029 361.682 353.237 360.486 353.237C359.962 353.237 359.407 353.168 358.82 353.029C358.242 352.89 357.687 352.674 357.155 352.381C356.63 352.088 356.19 351.718 355.836 351.27L357.305 349.304C357.691 349.751 358.138 350.098 358.647 350.345C359.156 350.599 359.719 350.727 360.336 350.727C360.938 350.727 361.447 350.615 361.863 350.391C362.28 350.175 362.6 349.855 362.823 349.431C363.047 349.014 363.159 348.509 363.159 347.915V338.683L363.483 335.791ZM355.06 342.2V341.957C355.06 341.001 355.176 340.133 355.408 339.354C355.647 338.567 355.982 337.892 356.414 337.329C356.854 336.766 357.386 336.331 358.011 336.022C358.635 335.714 359.341 335.559 360.128 335.559C360.961 335.559 361.659 335.714 362.222 336.022C362.785 336.331 363.248 336.77 363.61 337.341C363.973 337.904 364.254 338.571 364.455 339.342C364.663 340.106 364.825 340.943 364.941 341.853V342.385C364.825 343.257 364.651 344.067 364.42 344.815C364.189 345.563 363.884 346.218 363.506 346.781C363.128 347.337 362.658 347.769 362.095 348.077C361.539 348.386 360.876 348.54 360.105 348.54C359.333 348.54 358.635 348.382 358.011 348.066C357.394 347.749 356.865 347.306 356.426 346.735C355.986 346.164 355.647 345.493 355.408 344.722C355.176 343.951 355.06 343.11 355.06 342.2ZM358.392 341.957V342.2C358.392 342.717 358.443 343.199 358.543 343.646C358.643 344.094 358.797 344.491 359.006 344.838C359.222 345.177 359.488 345.443 359.804 345.636C360.128 345.821 360.51 345.914 360.949 345.914C361.559 345.914 362.056 345.786 362.442 345.532C362.827 345.27 363.117 344.911 363.309 344.456C363.502 344.001 363.614 343.476 363.645 342.883V341.367C363.629 340.881 363.564 340.445 363.448 340.06C363.332 339.666 363.171 339.331 362.962 339.053C362.754 338.776 362.484 338.56 362.152 338.405C361.821 338.251 361.427 338.174 360.972 338.174C360.533 338.174 360.151 338.274 359.827 338.475C359.511 338.668 359.245 338.934 359.029 339.273C358.82 339.612 358.662 340.013 358.554 340.476C358.446 340.931 358.392 341.425 358.392 341.957ZM372.611 335.791V348.309H369.268V335.791H372.611ZM369.059 332.528C369.059 332.042 369.229 331.641 369.568 331.325C369.908 331.009 370.363 330.851 370.934 330.851C371.497 330.851 371.948 331.009 372.287 331.325C372.634 331.641 372.808 332.042 372.808 332.528C372.808 333.014 372.634 333.415 372.287 333.731C371.948 334.048 371.497 334.206 370.934 334.206C370.363 334.206 369.908 334.048 369.568 333.731C369.229 333.415 369.059 333.014 369.059 332.528ZM380.536 345.937C380.945 345.937 381.307 345.86 381.624 345.706C381.94 345.544 382.187 345.32 382.364 345.034C382.549 344.741 382.645 344.398 382.653 344.005H385.788C385.781 344.884 385.545 345.667 385.083 346.353C384.62 347.032 383.999 347.568 383.22 347.962C382.441 348.347 381.57 348.54 380.605 348.54C379.634 348.54 378.785 348.378 378.06 348.054C377.343 347.73 376.745 347.283 376.267 346.712C375.789 346.134 375.43 345.463 375.191 344.699C374.952 343.928 374.832 343.102 374.832 342.223V341.888C374.832 341.001 374.952 340.175 375.191 339.412C375.43 338.641 375.789 337.97 376.267 337.399C376.745 336.82 377.343 336.369 378.06 336.045C378.777 335.721 379.618 335.559 380.582 335.559C381.608 335.559 382.507 335.756 383.278 336.149C384.057 336.543 384.666 337.106 385.106 337.838C385.553 338.563 385.781 339.423 385.788 340.418H382.653C382.645 340.002 382.557 339.624 382.387 339.285C382.225 338.945 381.986 338.675 381.67 338.475C381.361 338.266 380.979 338.162 380.524 338.162C380.039 338.162 379.641 338.266 379.333 338.475C379.024 338.675 378.785 338.953 378.615 339.308C378.446 339.655 378.326 340.052 378.257 340.499C378.195 340.939 378.164 341.402 378.164 341.888V342.223C378.164 342.709 378.195 343.176 378.257 343.623C378.319 344.07 378.434 344.468 378.604 344.815C378.781 345.162 379.024 345.436 379.333 345.636C379.641 345.837 380.042 345.937 380.536 345.937ZM394.477 345.486V339.909C394.477 339.508 394.411 339.165 394.28 338.88C394.149 338.587 393.945 338.359 393.667 338.197C393.397 338.035 393.046 337.954 392.614 337.954C392.244 337.954 391.924 338.02 391.654 338.151C391.384 338.274 391.176 338.455 391.029 338.695C390.883 338.926 390.809 339.2 390.809 339.516H387.478C387.478 338.984 387.601 338.479 387.848 338C388.095 337.522 388.453 337.102 388.924 336.739C389.394 336.369 389.953 336.08 390.601 335.872C391.257 335.663 391.99 335.559 392.799 335.559C393.771 335.559 394.635 335.721 395.391 336.045C396.147 336.369 396.741 336.855 397.173 337.503C397.612 338.151 397.832 338.961 397.832 339.932V345.289C397.832 345.975 397.874 346.538 397.959 346.978C398.044 347.41 398.168 347.788 398.33 348.112V348.309H394.963C394.801 347.969 394.677 347.545 394.593 347.036C394.516 346.519 394.477 346.002 394.477 345.486ZM394.917 340.684L394.94 342.57H393.077C392.637 342.57 392.256 342.62 391.932 342.721C391.608 342.821 391.342 342.964 391.133 343.149C390.925 343.326 390.771 343.534 390.671 343.773C390.578 344.013 390.532 344.275 390.532 344.56C390.532 344.846 390.597 345.104 390.729 345.335C390.86 345.559 391.049 345.736 391.295 345.867C391.542 345.991 391.831 346.053 392.163 346.053C392.664 346.053 393.1 345.952 393.47 345.752C393.841 345.551 394.126 345.304 394.327 345.011C394.535 344.718 394.643 344.441 394.65 344.178L395.53 345.59C395.406 345.906 395.237 346.234 395.021 346.573C394.812 346.913 394.546 347.233 394.222 347.533C393.898 347.827 393.509 348.069 393.054 348.262C392.599 348.447 392.059 348.54 391.434 348.54C390.64 348.54 389.919 348.382 389.271 348.066C388.631 347.742 388.122 347.298 387.744 346.735C387.373 346.164 387.188 345.517 387.188 344.792C387.188 344.136 387.312 343.554 387.559 343.045C387.805 342.536 388.168 342.107 388.646 341.76C389.132 341.406 389.737 341.14 390.462 340.962C391.187 340.777 392.028 340.684 392.985 340.684H394.917ZM403.917 330.538V348.309H400.574V330.538H403.917Z" fill="white"/>
<path d="M281.121 386.585V389.292H272.641V386.585H281.121ZM273.763 372.447V389.292H270.292V372.447H273.763ZM282.371 383.16V382.917C282.371 381.999 282.502 381.155 282.764 380.384C283.026 379.605 283.408 378.93 283.909 378.359C284.411 377.788 285.028 377.345 285.761 377.029C286.493 376.705 287.334 376.543 288.283 376.543C289.231 376.543 290.076 376.705 290.816 377.029C291.557 377.345 292.178 377.788 292.679 378.359C293.188 378.93 293.574 379.605 293.836 380.384C294.098 381.155 294.229 381.999 294.229 382.917V383.16C294.229 384.07 294.098 384.915 293.836 385.694C293.574 386.465 293.188 387.14 292.679 387.719C292.178 388.289 291.561 388.733 290.828 389.049C290.095 389.365 289.254 389.523 288.306 389.523C287.357 389.523 286.513 389.365 285.772 389.049C285.039 388.733 284.419 388.289 283.909 387.719C283.408 387.14 283.026 386.465 282.764 385.694C282.502 384.915 282.371 384.07 282.371 383.16ZM285.703 382.917V383.16C285.703 383.685 285.749 384.175 285.842 384.63C285.934 385.085 286.081 385.486 286.281 385.833C286.489 386.172 286.759 386.438 287.091 386.631C287.423 386.824 287.828 386.92 288.306 386.92C288.769 386.92 289.166 386.824 289.497 386.631C289.829 386.438 290.095 386.172 290.296 385.833C290.496 385.486 290.643 385.085 290.735 384.63C290.836 384.175 290.886 383.685 290.886 383.16V382.917C290.886 382.408 290.836 381.93 290.735 381.483C290.643 381.028 290.492 380.627 290.284 380.28C290.084 379.925 289.817 379.647 289.486 379.447C289.154 379.246 288.753 379.146 288.283 379.146C287.812 379.146 287.411 379.246 287.079 379.447C286.755 379.647 286.489 379.925 286.281 380.28C286.081 380.627 285.934 381.028 285.842 381.483C285.749 381.93 285.703 382.408 285.703 382.917ZM304.202 376.774H307.222V388.875C307.222 390.017 306.967 390.985 306.458 391.779C305.957 392.582 305.255 393.187 304.352 393.596C303.45 394.012 302.401 394.22 301.206 394.22C300.681 394.22 300.126 394.151 299.54 394.012C298.961 393.873 298.406 393.657 297.874 393.364C297.349 393.071 296.909 392.701 296.555 392.254L298.024 390.287C298.41 390.734 298.857 391.081 299.366 391.328C299.875 391.583 300.438 391.71 301.055 391.71C301.657 391.71 302.166 391.598 302.582 391.374C302.999 391.159 303.319 390.838 303.543 390.414C303.766 389.998 303.878 389.493 303.878 388.899V379.666L304.202 376.774ZM295.78 383.183V382.94C295.78 381.984 295.895 381.116 296.127 380.337C296.366 379.551 296.701 378.876 297.133 378.313C297.573 377.75 298.105 377.314 298.73 377.005C299.354 376.697 300.06 376.543 300.847 376.543C301.68 376.543 302.378 376.697 302.941 377.005C303.504 377.314 303.967 377.754 304.329 378.324C304.692 378.887 304.973 379.555 305.174 380.326C305.382 381.089 305.544 381.926 305.66 382.836V383.369C305.544 384.24 305.37 385.05 305.139 385.798C304.908 386.546 304.603 387.202 304.225 387.765C303.847 388.32 303.377 388.752 302.814 389.061C302.258 389.369 301.595 389.523 300.824 389.523C300.052 389.523 299.354 389.365 298.73 389.049C298.113 388.733 297.584 388.289 297.145 387.719C296.705 387.148 296.366 386.477 296.127 385.706C295.895 384.934 295.78 384.094 295.78 383.183ZM299.111 382.94V383.183C299.111 383.7 299.162 384.182 299.262 384.63C299.362 385.077 299.516 385.474 299.725 385.821C299.941 386.161 300.207 386.427 300.523 386.619C300.847 386.805 301.229 386.897 301.668 386.897C302.278 386.897 302.775 386.77 303.161 386.515C303.546 386.253 303.836 385.894 304.028 385.439C304.221 384.984 304.333 384.46 304.364 383.866V382.35C304.348 381.865 304.283 381.429 304.167 381.043C304.052 380.65 303.89 380.314 303.681 380.037C303.473 379.759 303.203 379.543 302.871 379.389C302.54 379.234 302.146 379.157 301.691 379.157C301.252 379.157 300.87 379.258 300.546 379.458C300.23 379.651 299.964 379.917 299.748 380.256C299.54 380.596 299.381 380.997 299.273 381.46C299.165 381.915 299.111 382.408 299.111 382.94ZM309.813 371.522H313.145V386.423L312.809 389.292H309.813V371.522ZM321.07 382.906V383.149C321.07 384.082 320.97 384.938 320.769 385.717C320.576 386.496 320.276 387.171 319.867 387.742C319.458 388.305 318.949 388.744 318.34 389.061C317.738 389.369 317.028 389.523 316.211 389.523C315.447 389.523 314.784 389.369 314.221 389.061C313.666 388.752 313.199 388.316 312.821 387.753C312.443 387.19 312.138 386.531 311.907 385.775C311.676 385.019 311.502 384.194 311.386 383.299V382.767C311.502 381.872 311.676 381.047 311.907 380.291C312.138 379.535 312.443 378.876 312.821 378.313C313.199 377.75 313.666 377.314 314.221 377.005C314.776 376.697 315.432 376.543 316.188 376.543C317.013 376.543 317.73 376.701 318.34 377.017C318.957 377.326 319.466 377.765 319.867 378.336C320.276 378.899 320.576 379.57 320.769 380.349C320.97 381.12 321.07 381.973 321.07 382.906ZM317.738 383.149V382.906C317.738 382.397 317.699 381.919 317.622 381.471C317.553 381.016 317.429 380.619 317.252 380.28C317.075 379.932 316.832 379.659 316.523 379.458C316.222 379.258 315.833 379.157 315.355 379.157C314.9 379.157 314.514 379.234 314.198 379.389C313.882 379.543 313.619 379.759 313.411 380.037C313.211 380.314 313.06 380.646 312.96 381.032C312.86 381.409 312.798 381.826 312.775 382.281V383.797C312.798 384.406 312.898 384.946 313.076 385.416C313.261 385.879 313.538 386.245 313.909 386.515C314.286 386.778 314.776 386.909 315.378 386.909C315.848 386.909 316.238 386.816 316.546 386.631C316.855 386.446 317.094 386.184 317.264 385.844C317.441 385.505 317.564 385.108 317.634 384.653C317.703 384.19 317.738 383.689 317.738 383.149ZM322.609 383.16V382.917C322.609 381.999 322.74 381.155 323.002 380.384C323.264 379.605 323.646 378.93 324.147 378.359C324.649 377.788 325.266 377.345 325.998 377.029C326.731 376.705 327.572 376.543 328.521 376.543C329.469 376.543 330.314 376.705 331.054 377.029C331.795 377.345 332.416 377.788 332.917 378.359C333.426 378.93 333.812 379.605 334.074 380.384C334.336 381.155 334.467 381.999 334.467 382.917V383.16C334.467 384.07 334.336 384.915 334.074 385.694C333.812 386.465 333.426 387.14 332.917 387.719C332.416 388.289 331.799 388.733 331.066 389.049C330.333 389.365 329.492 389.523 328.544 389.523C327.595 389.523 326.75 389.365 326.01 389.049C325.277 388.733 324.656 388.289 324.147 387.719C323.646 387.14 323.264 386.465 323.002 385.694C322.74 384.915 322.609 384.07 322.609 383.16ZM325.941 382.917V383.16C325.941 383.685 325.987 384.175 326.079 384.63C326.172 385.085 326.319 385.486 326.519 385.833C326.727 386.172 326.997 386.438 327.329 386.631C327.661 386.824 328.065 386.92 328.544 386.92C329.006 386.92 329.404 386.824 329.735 386.631C330.067 386.438 330.333 386.172 330.534 385.833C330.734 385.486 330.881 385.085 330.973 384.63C331.074 384.175 331.124 383.685 331.124 383.16V382.917C331.124 382.408 331.074 381.93 330.973 381.483C330.881 381.028 330.73 380.627 330.522 380.28C330.321 379.925 330.055 379.647 329.724 379.447C329.392 379.246 328.991 379.146 328.521 379.146C328.05 379.146 327.649 379.246 327.317 379.447C326.993 379.647 326.727 379.925 326.519 380.28C326.319 380.627 326.172 381.028 326.079 381.483C325.987 381.93 325.941 382.408 325.941 382.917ZM335.983 383.16V382.917C335.983 381.999 336.114 381.155 336.376 380.384C336.638 379.605 337.02 378.93 337.521 378.359C338.023 377.788 338.64 377.345 339.373 377.029C340.105 376.705 340.946 376.543 341.895 376.543C342.843 376.543 343.688 376.705 344.428 377.029C345.169 377.345 345.79 377.788 346.291 378.359C346.8 378.93 347.186 379.605 347.448 380.384C347.71 381.155 347.841 381.999 347.841 382.917V383.16C347.841 384.07 347.71 384.915 347.448 385.694C347.186 386.465 346.8 387.14 346.291 387.719C345.79 388.289 345.173 388.733 344.44 389.049C343.707 389.365 342.866 389.523 341.918 389.523C340.969 389.523 340.125 389.365 339.384 389.049C338.651 388.733 338.03 388.289 337.521 387.719C337.02 387.14 336.638 386.465 336.376 385.694C336.114 384.915 335.983 384.07 335.983 383.16ZM339.315 382.917V383.16C339.315 383.685 339.361 384.175 339.454 384.63C339.546 385.085 339.693 385.486 339.893 385.833C340.101 386.172 340.371 386.438 340.703 386.631C341.035 386.824 341.44 386.92 341.918 386.92C342.381 386.92 342.778 386.824 343.109 386.631C343.441 386.438 343.707 386.172 343.908 385.833C344.108 385.486 344.255 385.085 344.347 384.63C344.448 384.175 344.498 383.685 344.498 383.16V382.917C344.498 382.408 344.448 381.93 344.347 381.483C344.255 381.028 344.104 380.627 343.896 380.28C343.696 379.925 343.429 379.647 343.098 379.447C342.766 379.246 342.365 379.146 341.895 379.146C341.424 379.146 341.023 379.246 340.691 379.447C340.367 379.647 340.101 379.925 339.893 380.28C339.693 380.627 339.546 381.028 339.454 381.483C339.361 381.93 339.315 382.408 339.315 382.917ZM353.221 371.51V389.292H349.889V371.51H353.221ZM361.111 376.774L355.674 382.975L352.758 385.925L351.543 383.519L353.857 380.58L357.108 376.774H361.111ZM357.652 389.292L353.95 383.507L356.252 381.494L361.493 389.292H357.652Z" fill="white"/>
<defs>
<filter id="filter0_d_19_1254" x="91.9375" y="393.893" width="117.092" height="116.604" filterUnits="userSpaceOnUse" color-interpolation-filters="sRGB">
<feFlood flood-opacity="0" result="BackgroundImageFix"/>
<feColorMatrix in="SourceAlpha" type="matrix" values="0 0 0 0 0 0 0 0 0 0 0 0 0 0 0 0 0 0 127 0" result="hardAlpha"/>
<feMorphology radius="4.39096" operator="dilate" in="SourceAlpha" result="effect1_dropShadow_19_1254"/>
<feOffset dy="1.46365"/>
<feGaussianBlur stdDeviation="11.9532"/>
<feColorMatrix type="matrix" values="0 0 0 0 0 0 0 0 0 0 0 0 0 0 0 0 0 0 0.06 0"/>
<feBlend mode="normal" in2="BackgroundImageFix" result="effect1_dropShadow_19_1254"/>
<feBlend mode="normal" in="SourceGraphic" in2="effect1_dropShadow_19_1254" result="shape"/>
</filter>
<filter id="filter1_d_19_1254" x="238.303" y="0.16633" width="145.878" height="145.878" filterUnits="userSpaceOnUse" color-interpolation-filters="sRGB">
<feFlood flood-opacity="0" result="BackgroundImageFix"/>
<feColorMatrix in="SourceAlpha" type="matrix" values="0 0 0 0 0 0 0 0 0 0 0 0 0 0 0 0 0 0 127 0" result="hardAlpha"/>
<feMorphology radius="4.39096" operator="dilate" in="SourceAlpha" result="effect1_dropShadow_19_1254"/>
<feOffset dy="1.46365"/>
<feGaussianBlur stdDeviation="11.9532"/>
<feColorMatrix type="matrix" values="0 0 0 0 0 0 0 0 0 0 0 0 0 0 0 0 0 0 0.06 0"/>
<feBlend mode="normal" in2="BackgroundImageFix" result="effect1_dropShadow_19_1254"/>
<feBlend mode="normal" in="SourceGraphic" in2="effect1_dropShadow_19_1254" result="shape"/>
</filter>
<filter id="filter2_d_19_1254" x="36.8062" y="473.416" width="101.48" height="100.992" filterUnits="userSpaceOnUse" color-interpolation-filters="sRGB">
<feFlood flood-opacity="0" result="BackgroundImageFix"/>
<feColorMatrix in="SourceAlpha" type="matrix" values="0 0 0 0 0 0 0 0 0 0 0 0 0 0 0 0 0 0 127 0" result="hardAlpha"/>
<feMorphology radius="4.39096" operator="dilate" in="SourceAlpha" result="effect1_dropShadow_19_1254"/>
<feOffset dy="1.46365"/>
<feGaussianBlur stdDeviation="11.9532"/>
<feColorMatrix type="matrix" values="0 0 0 0 0 0 0 0 0 0 0 0 0 0 0 0 0 0 0.06 0"/>
<feBlend mode="normal" in2="BackgroundImageFix" result="effect1_dropShadow_19_1254"/>
<feBlend mode="normal" in="SourceGraphic" in2="effect1_dropShadow_19_1254" result="shape"/>
</filter>
<filter id="filter3_d_19_1254" x="403.208" y="173.85" width="87.8193" height="87.331" filterUnits="userSpaceOnUse" color-interpolation-filters="sRGB">
<feFlood flood-opacity="0" result="BackgroundImageFix"/>
<feColorMatrix in="SourceAlpha" type="matrix" values="0 0 0 0 0 0 0 0 0 0 0 0 0 0 0 0 0 0 127 0" result="hardAlpha"/>
<feMorphology radius="4.39096" operator="dilate" in="SourceAlpha" result="effect1_dropShadow_19_1254"/>
<feOffset dy="1.46365"/>
<feGaussianBlur stdDeviation="11.9532"/>
<feColorMatrix type="matrix" values="0 0 0 0 0 0 0 0 0 0 0 0 0 0 0 0 0 0 0.06 0"/>
<feBlend mode="normal" in2="BackgroundImageFix" result="effect1_dropShadow_19_1254"/>
<feBlend mode="normal" in="SourceGraphic" in2="effect1_dropShadow_19_1254" result="shape"/>
</filter>
<filter id="filter4_d_19_1254" x="352.468" y="453.893" width="158.075" height="157.587" filterUnits="userSpaceOnUse" color-interpolation-filters="sRGB">
<feFlood flood-opacity="0" result="BackgroundImageFix"/>
<feColorMatrix in="SourceAlpha" type="matrix" values="0 0 0 0 0 0 0 0 0 0 0 0 0 0 0 0 0 0 127 0" result="hardAlpha"/>
<feMorphology radius="4.39096" operator="dilate" in="SourceAlpha" result="effect1_dropShadow_19_1254"/>
<feOffset dy="1.46365"/>
<feGaussianBlur stdDeviation="11.9532"/>
<feColorMatrix type="matrix" values="0 0 0 0 0 0 0 0 0 0 0 0 0 0 0 0 0 0 0.06 0"/>
<feBlend mode="normal" in2="BackgroundImageFix" result="effect1_dropShadow_19_1254"/>
<feBlend mode="normal" in="SourceGraphic" in2="effect1_dropShadow_19_1254" result="shape"/>
</filter>
<filter id="filter5_d_19_1254" x="454.923" y="267.041" width="101.48" height="100.992" filterUnits="userSpaceOnUse" color-interpolation-filters="sRGB">
<feFlood flood-opacity="0" result="BackgroundImageFix"/>
<feColorMatrix in="SourceAlpha" type="matrix" values="0 0 0 0 0 0 0 0 0 0 0 0 0 0 0 0 0 0 127 0" result="hardAlpha"/>
<feMorphology radius="4.39096" operator="dilate" in="SourceAlpha" result="effect1_dropShadow_19_1254"/>
<feOffset dy="1.46365"/>
<feGaussianBlur stdDeviation="11.9532"/>
<feColorMatrix type="matrix" values="0 0 0 0 0 0 0 0 0 0 0 0 0 0 0 0 0 0 0.06 0"/>
<feBlend mode="normal" in2="BackgroundImageFix" result="effect1_dropShadow_19_1254"/>
<feBlend mode="normal" in="SourceGraphic" in2="effect1_dropShadow_19_1254" result="shape"/>
</filter>
<filter id="filter6_d_19_1254" x="0.702675" y="123.119" width="158.075" height="157.587" filterUnits="userSpaceOnUse" color-interpolation-filters="sRGB">
<feFlood flood-opacity="0" result="BackgroundImageFix"/>
<feColorMatrix in="SourceAlpha" type="matrix" values="0 0 0 0 0 0 0 0 0 0 0 0 0 0 0 0 0 0 127 0" result="hardAlpha"/>
<feMorphology radius="4.39096" operator="dilate" in="SourceAlpha" result="effect1_dropShadow_19_1254"/>
<feOffset dy="1.46365"/>
<feGaussianBlur stdDeviation="11.9532"/>
<feColorMatrix type="matrix" values="0 0 0 0 0 0 0 0 0 0 0 0 0 0 0 0 0 0 0.06 0"/>
<feBlend mode="normal" in2="BackgroundImageFix" result="effect1_dropShadow_19_1254"/>
<feBlend mode="normal" in="SourceGraphic" in2="effect1_dropShadow_19_1254" result="shape"/>
</filter>
</defs>
</svg>
