<svg width="165" height="164" viewBox="0 0 165 164" fill="none" xmlns="http://www.w3.org/2000/svg">
<path fill-rule="evenodd" clip-rule="evenodd" d="M120.49 53.1457C122.782 55.4284 122.789 59.137 120.507 61.429L71.1542 110.982C68.8716 113.274 65.1632 113.282 62.8712 110.999L44.8726 93.0751C42.5805 90.7925 42.5728 87.084 44.8553 84.7918C47.1379 82.4997 50.8465 82.492 53.1386 84.7746L66.9872 98.5658L112.207 53.1625C114.489 50.8705 118.198 50.863 120.49 53.1457Z" fill="#03A9F4"/>
<path fill-rule="evenodd" clip-rule="evenodd" d="M82.0522 16.7143C51.005 16.7143 24.9586 38.3937 18.2725 67.4361L18.2725 67.4362C17.1842 72.1635 16.6078 77.0909 16.6078 82.1586C16.6078 118.275 45.9357 147.603 82.0522 147.603C118.169 147.603 147.497 118.275 147.497 82.1586C147.497 46.0421 118.169 16.7143 82.0522 16.7143ZM6.85686 64.808C14.7391 30.5697 45.4235 5 82.0522 5C124.638 5 159.211 39.5725 159.211 82.1586C159.211 124.745 124.638 159.317 82.0522 159.317C39.4661 159.317 4.89355 124.745 4.89355 82.1586C4.89355 76.1999 5.57152 70.3909 6.85686 64.808Z" fill="#C2CDE0"/>
</svg>
