<svg width="124" height="123" viewBox="0 0 124 123" fill="none" xmlns="http://www.w3.org/2000/svg">
<path fill-rule="evenodd" clip-rule="evenodd" d="M90.6169 39.8594C92.3359 41.5715 92.3416 44.3529 90.6295 46.0719L53.6152 83.2367C51.9032 84.9556 49.1219 84.9613 47.4029 83.2494L33.9039 69.8065C32.1849 68.0945 32.1791 65.3131 33.891 63.594C35.603 61.875 38.3844 61.8692 40.1034 63.5811L50.4899 73.9245L84.4045 39.872C86.1165 38.1531 88.8979 38.1474 90.6169 39.8594Z" fill="#03A9F4"/>
<path fill-rule="evenodd" clip-rule="evenodd" d="M61.7889 12.5357C38.5035 12.5357 18.9687 28.7953 13.9542 50.5771L13.9541 50.5771C13.1379 54.1226 12.7056 57.8182 12.7056 61.619C12.7056 88.7063 34.7015 110.702 61.7889 110.702C88.8762 110.702 110.872 88.7063 110.872 61.619C110.872 34.5316 88.8762 12.5357 61.7889 12.5357ZM5.3924 48.606C11.304 22.9273 34.3174 3.75 61.7889 3.75C93.7285 3.75 119.658 29.6794 119.658 61.619C119.658 93.5585 93.7285 119.488 61.7889 119.488C29.8493 119.488 3.91992 93.5585 3.91992 61.619C3.91992 57.1499 4.42839 52.7932 5.3924 48.606Z" fill="#C2CDE0"/>
</svg>
