<svg width="22" height="22" viewBox="0 0 22 22" fill="none" xmlns="http://www.w3.org/2000/svg">
<path d="M8.38086 20.0762H13.8184C18.3496 20.0762 20.1621 18.2637 20.1621 13.7324V8.29492C20.1621 3.76367 18.3496 1.95117 13.8184 1.95117H8.38086C3.84961 1.95117 2.03711 3.76367 2.03711 8.29492V13.7324C2.03711 18.2637 3.84961 20.0762 8.38086 20.0762Z" stroke="#333333" stroke-width="0.304726" stroke-linecap="round" stroke-linejoin="round"/>
<path d="M8.38086 9.20117C9.38188 9.20117 10.1934 8.38969 10.1934 7.38867C10.1934 6.38766 9.38188 5.57617 8.38086 5.57617C7.37984 5.57617 6.56836 6.38766 6.56836 7.38867C6.56836 8.38969 7.37984 9.20117 8.38086 9.20117Z" stroke="#333333" stroke-width="0.304726" stroke-linecap="round" stroke-linejoin="round"/>
<path d="M2.64429 17.3124L7.1121 14.3127C7.82804 13.8324 8.86116 13.8868 9.5046 14.4396L9.80366 14.7024C10.5105 15.3096 11.6524 15.3096 12.3593 14.7024L16.1293 11.4671C16.8362 10.8599 17.978 10.8599 18.6849 11.4671L20.1621 12.7359" stroke="#333333" stroke-width="0.304726" stroke-linecap="round" stroke-linejoin="round"/>
</svg>
